<?xml version="1.0" encoding="UTF-8"?>
<svg width="31px" height="16px" viewBox="0 0 31 16" version="1.1" xmlns="http://www.w3.org/2000/svg" xmlns:xlink="http://www.w3.org/1999/xlink">
    <!-- Generator: Sketch 46.2 (44496) - http://www.bohemiancoding.com/sketch -->
    <title>Page 1</title>
    <desc>Created with Sketch.</desc>
    <defs>
        <polygon id="path-1" points="8.50718595 16.9979975 0.117460766 16.9979975 0.117460766 0.250122884 8.50718595 0.250122884"></polygon>
        <polygon id="path-3" points="2.09868165e-16 14.779381 2.09868165e-16 0.694084896 14.8472753 0.694084896 14.8472753 14.779381 0 14.779381"></polygon>
    </defs>
    <g id="Page-1" stroke="none" stroke-width="1" fill="none" fill-rule="evenodd">
        <g id="1-copy-5" transform="translate(-145.000000, -584.000000)">
            <g id="flower_line" transform="translate(142.000000, 578.000000)">
                <g id="Page-1" transform="translate(18.000000, 14.000000) rotate(-75.000000) translate(-18.000000, -14.000000) translate(8.000000, -1.000000)">
                    <g id="Group-3" transform="translate(8.389491, 12.465198)">
                        <mask id="mask-2" fill="white">
                            <use xlink:href="#path-1"></use>
                        </mask>
                        <g id="Clip-2"></g>
                        <path d="M8.00614863,16.9988231 C7.87984917,16.9988231 7.75354971,16.9437819 7.65639627,16.8392038 C1.48472454,10.107673 0.297023841,2.38815389 0.122147664,0.907547367 C0.0857151271,0.607573183 0.265448975,0.313103113 0.530192076,0.260814035 C0.794935177,0.203020844 1.0475341,0.384656588 1.10582616,0.681878715 C1.10825499,0.698391055 1.1155415,0.742423963 1.1155415,0.758936303 C1.21998144,1.62308212 2.29352686,9.41415472 8.35347214,16.0218429 C8.55263668,16.2392554 8.55992319,16.5970228 8.36561632,16.8254435 C8.26603406,16.9410299 8.13730576,16.9988231 8.00614863,16.9988231" id="Fill-1" fill="#65BC85" mask="url(#mask-2)"></path>
                    </g>
                    <path d="M14.8184335,18.3851743 C14.2491712,19.5039926 12.1435868,21.204709 10.9319041,21.5307968 C10.5798303,19.5658369 10.9524798,16.9768125 11.5217421,15.8579941 C12.0887181,14.7363646 13.2866837,14.3962214 14.198875,15.0933745 C15.1087801,15.7905277 15.3854095,17.2663559 14.8184335,18.3851743" id="Fill-4" fill="#65BC85"></path>
                    <path d="M18.9898766,23.1555198 C18.2370174,24.2568886 15.5896003,25.8265561 14.1087014,26.0635961 C13.8136247,24.0140671 14.4285977,21.3892825 15.1842146,20.2879137 C15.9398316,19.1865448 17.4041841,18.9350511 18.4548778,19.7242209 C19.5055714,20.5191722 19.7454936,22.0541509 18.9898766,23.1555198" id="Fill-6" fill="#65BC85"></path>
                    <path d="M8.72514542,20.4086788 C9.84909387,20.5313049 12.1379054,22.0188136 12.9537909,23.1437754 C11.6084222,24.3407134 9.44957472,25.0391493 8.32321953,24.9165232 C7.19927108,24.7965628 6.37616536,23.68493 6.48687549,22.4426736 C6.59758562,21.1950857 7.59879023,20.2860526 8.72514542,20.4086788" id="Fill-8" fill="#65BC85"></path>
                    <g id="Group-12">
                        <mask id="mask-4" fill="white">
                            <use xlink:href="#path-3"></use>
                        </mask>
                        <g id="Clip-11"></g>
                        <path d="M2.83767182,11.3314317 C2.83263423,11.3896026 2.82759665,11.4477735 2.82759665,11.5033003 C2.82759665,13.3118873 4.22552658,14.779381 5.94586197,14.779381 C6.80225148,14.779381 7.58055841,14.4171348 8.14224918,13.8274932 C8.6485265,14.2769958 9.3008938,14.5519856 10.0162309,14.5519856 C11.6181831,14.5519856 12.9178801,13.187613 12.9178801,11.5033003 C12.9178801,10.8475554 12.7188955,10.2446931 12.383896,9.74495194 C13.8070139,9.3007376 14.8472753,7.91785608 14.8472753,6.27849366 C14.8472753,4.27952916 13.3032554,2.6613198 11.3990481,2.6613198 C10.9305527,2.6613198 10.4822076,2.75915272 10.0741632,2.93895376 C9.66359995,1.63539622 8.49488015,0.694084896 7.11206298,0.694084896 C5.39172758,0.694084896 3.99379765,2.15629041 3.99379765,3.96752147 C3.99379765,4.21606997 4.02402317,4.45404193 4.07188023,4.6840815 C3.8048882,4.61004578 3.52530222,4.56509552 3.23564106,4.56509552 C1.44729827,4.56509552 -0.00100751707,6.08811609 -0.00100751707,7.96545047 C-0.00100751707,9.69735755 1.23823848,11.1251893 2.83767182,11.3314317" id="Fill-10" fill="#FFE576" mask="url(#mask-4)"></path>
                    </g>
                    <path d="M6.47689543,7.88933722 C6.47689543,8.49219953 6.9432319,8.97947545 7.51535767,8.97947545 C8.08964239,8.97947545 8.55597886,8.49219953 8.55597886,7.88933722 C8.55597886,7.28647491 8.08964239,6.79919898 7.51535767,6.79919898 C6.9432319,6.79919898 6.47689543,7.28647491 6.47689543,7.88933722" id="Fill-13" fill="#F9C94F"></path>
                </g>
            </g>
        </g>
    </g>
</svg>