<?xml version="1.0" encoding="UTF-8"?>
<svg width="16px" height="16px" viewBox="0 0 16 16" version="1.1" xmlns="http://www.w3.org/2000/svg" xmlns:xlink="http://www.w3.org/1999/xlink">
    <!-- Generator: Sketch 46.2 (44496) - http://www.bohemiancoding.com/sketch -->
    <title>Page 1</title>
    <desc>Created with Sketch.</desc>
    <defs></defs>
    <g id="Page-1" stroke="none" stroke-width="1" fill="none" fill-rule="evenodd">
        <g id="2" transform="translate(-288.000000, -16.000000)" fill="#4B5262">
            <path d="M297.885167,24 L303.609167,18.276 C304.129833,17.7553333 304.129833,16.9113333 303.609167,16.3906667 C303.0885,15.87 302.2445,15.87 301.723833,16.3906667 L295.999833,22.1146667 L290.275833,16.3906667 C289.755167,15.87 288.911167,15.87 288.3905,16.3906667 C287.869833,16.9113333 287.869833,17.7553333 288.3905,18.276 L294.1145,24 L288.3905,29.724 C287.869833,30.2446667 287.869833,31.0886667 288.3905,31.6093333 C288.6505,31.87 288.991833,32 289.333167,32 C289.6745,32 290.015167,31.87 290.275833,31.6093333 L295.999833,25.8853333 L301.723833,31.6093333 C301.983833,31.87 302.325167,32 302.6665,32 C303.007833,32 303.3485,31.87 303.609167,31.6093333 C304.129833,31.0886667 304.129833,30.2446667 303.609167,29.724 L297.885167,24 Z" id="Page-1"></path>
        </g>
    </g>
</svg>