<svg id="레이어_1" data-name="레이어 1" xmlns="http://www.w3.org/2000/svg" viewBox="0 0 750 630">
  <defs>
    <style>
      .cls-1 {
        fill: #ffebc7;
      }

      .cls-2 {
        fill: #665046;
      }

      .cls-3 {
        fill: #ffe0b8;
      }

      .cls-4 {
        fill: #f5d85b;
      }

      .cls-5 {
        fill: #484c66;
      }

      .cls-6 {
        fill: #ffc0a8;
      }

      .cls-7 {
        fill: #9ad385;
      }

      .cls-8 {
        fill: #cece6a;
      }

      .cls-9 {
        fill: #fff;
      }

      .cls-10 {
        fill: #f9e38e;
      }

      .cls-11 {
        fill: #edd262;
      }

      .cls-12 {
        fill: #5e4a40;
      }

      .cls-13 {
        fill: #f7b09a;
      }

      .cls-14 {
        fill: #afb9db;
      }

      .cls-15 {
        fill: #564845;
      }
    </style>
  </defs>
  <title>invitation_img</title>
  <path class="cls-1" d="M533.58,453.49c14.06-1.1,43.06-2.16,36.82,8.49-7.8,13.31-.23,27.35-.23,27.35C566.14,500,552,505,540.85,507.39v2s-2.92-.13-7.27-.72c-4.35.59-7.27.72-7.27.72v-2C515.16,505,501,500,497,489.33c0,0,7.57-14-.23-27.35C490.52,451.33,519.52,452.4,533.58,453.49Z"/>
  <g>
    <path class="cls-2" d="M599.27,380.25l7.34,10.83a148.72,148.72,0,0,1-6,50.46c-6.15,20.7,6.22,31.39,11.31,44.36,6.81,17.34-2.13,38.79-26.26,37.5-30.19-1.61-40.65-36.69-19.22-60.58C589.37,437.21,599.27,380.25,599.27,380.25Z"/>
    <path class="cls-2" d="M467.89,380.15,460.55,391a148.72,148.72,0,0,0,6,50.46c6.15,20.7-6.22,31.39-11.31,44.36-6.81,17.34,2.13,38.79,26.26,37.5,30.19-1.61,40.65-36.69,19.22-60.58C477.79,437.11,467.89,380.15,467.89,380.15Z"/>
  </g>
  <path class="cls-1" d="M565.55,463.25c23.15-13.57,41.46-43.52,41.46-69.9,0-40-34.44-75.22-73.43-75.22h0c-39,0-73.43,35.22-73.43,75.22,0,26.38,17.88,56.13,41.46,69.9Z"/>
  <rect class="cls-3" x="241.07" y="370.04" width="90.11" height="27.54" transform="translate(572.25 767.63) rotate(180)"/>
  <path class="cls-4" d="M433.75,625.76c5.1,0,9-3.45,12.45-7.68,47.59-58.75,68.35-96.8,68.59-97,5.35-5.52-10.66-12.76-16.18-18.12s-15-5.79-19.71.32c-13.6,17.8-23.61,39-57.58,102.35a13.93,13.93,0,0,0,12.43,20.17Z"/>
  <path class="cls-5" d="M395.89,549.54l9.35,95.67H458s-7-117.45-14-158.63c-12.63-74.91-80.3-80.65-112.8-89.7l-18.36,6.18-26.78-6.18-25.4,5.41L241,396.87c-32.5,9.06-100,17.69-103.13,89.7l-3.22,158.63H391.18V549.6C391.18,545.64,395.89,546,395.89,549.54Z"/>
  <rect class="cls-4" x="575.04" y="620.29" width="44.06" height="15.1"/>
  <path class="cls-4" d="M611.16,633.68c-5-.81-8.13-4.41-9.9-9.56-24.46-70.86-45.31-107.35-45.5-107.63a13.92,13.92,0,1,1,22.84-15.91c.87,1.25,23.6.65,48,115.17,1.61,7.52-1.76,15.15-9.09,17.46A13.87,13.87,0,0,1,611.16,633.68Z"/>
  <path class="cls-4" d="M508.71,486.51a31.6,31.6,0,0,0,49.73,0c18.62,9.55,54.44,26.65,20.34,156H488.37C453.07,513.15,491.1,494,508.71,486.51Z"/>
  <g>
    <circle class="cls-6" cx="570.24" cy="433.41" r="10.32"/>
    <circle class="cls-6" cx="494.8" cy="433.41" r="10.32"/>
  </g>
  <path class="cls-3" d="M236,235.65h96.73A42.33,42.33,0,0,1,375.06,278v47.79a48.88,48.88,0,0,1-48.88,48.88H242.57a48.88,48.88,0,0,1-48.88-48.88V278A42.31,42.31,0,0,1,236,235.65Z"/>
  <g>
    <path class="cls-7" d="M233.27,536.6a1.07,1.07,0,0,1-.75-.3,54,54,0,0,1-16.15-30.13,1.1,1.1,0,0,1,.87-1.23,1,1,0,0,1,1.23.8s0,.11,0,.14A52.62,52.62,0,0,0,234,534.76a1.07,1.07,0,0,1-.75,1.85Z"/>
    <path class="cls-7" d="M230.71,515.68c-1.29,2.07-6.09,5.22-8.85,5.83-.8-3.64,0-8.44,1.34-10.51a4.42,4.42,0,1,1,7.51,4.68Z"/>
    <path class="cls-7" d="M236.17,524.37c-1.43,2-6.42,4.81-9.21,5.23-.56-3.69.6-8.41,2-10.4a4.42,4.42,0,0,1,7.19,5.17Z"/>
    <path class="cls-7" d="M216.06,517.18c2.37.6,6.83,4.2,8.25,6.64-3.22,1.87-8,2.54-10.42,1.94a4.42,4.42,0,1,1,2.16-8.58Z"/>
  </g>
  <g>
    <g>
      <path class="cls-7" d="M504.55,619.35a1,1,0,0,1-.4,0c-19.52-3.93-31.63-18.19-32.14-18.8a.95.95,0,0,1,1.45-1.22c.12.14,12.21,14.37,31.06,18.16a.95.95,0,0,1,0,1.85Z"/>
      <path class="cls-7" d="M470.22,589.38c1.83,2.13,3.62,8.47,3.34,11.69-4.26-.38-9.22-3-11-5.08a5.08,5.08,0,0,1,7.71-6.61Z"/>
      <path class="cls-7" d="M486.54,596.71c-.22,2.8-3.43,8.55-5.91,10.62-2.75-3.28-4.43-8.61-4.21-11.41a5.08,5.08,0,0,1,10.13.78Z"/>
      <path class="cls-7" d="M469.32,602.89c2.8-.12,8.9,2.38,11.26,4.6-2.93,3.12-8,5.43-10.82,5.55a5.08,5.08,0,1,1-.44-10.15Z"/>
    </g>
    <path class="cls-7" d="M572.65,573.82c-.62,3.68-5.89,10.86-9.71,13.27-3.62-4.73-5.48-12-4.87-15.71s4.38-6.11,8.4-5.44S573.27,570.14,572.65,573.82Z"/>
    <path class="cls-7" d="M605.14,604c-3.94,2.57-14.86,4.16-20.16,3,1.56-7,6.93-14.67,10.87-17.24A8.51,8.51,0,0,1,605.14,604Z"/>
    <path class="cls-7" d="M496.81,576.72c2.23,2.73,4.3,10.76,3.84,14.81-5.35-.61-11.51-4-13.74-6.73a6.39,6.39,0,1,1,9.9-8.08Z"/>
    <path class="cls-7" d="M468.09,615c4.71.32,14.44,5.63,18,9.78-5.48,4.67-14.42,7.6-19.13,7.28A8.55,8.55,0,1,1,468.09,615Z"/>
    <path class="cls-7" d="M588.41,623.64c0,24.34-90.46,24.34-90.46,0s20.25-44.08,45.23-44.08S588.41,599.3,588.41,623.64Z"/>
  </g>
  <path class="cls-8" d="M568.2,594.94c-1.6,4.73-8.78,13.54-13.24,16.29-2.33-6.55-2.23-16.25-.62-21s6-7.51,9.83-6.22S569.8,590.21,568.2,594.94Z"/>
  <path class="cls-9" d="M514.6,625.74c0,.16.06.31.1.47a9.09,9.09,0,0,0,16.61,2.41,8.45,8.45,0,0,0,9.16-14.06,10.05,10.05,0,1,0-11.22-16.64,9.09,9.09,0,0,0-15.74,9,9.43,9.43,0,1,0,1.1,18.78Z"/>
  <g>
    <path class="cls-9" d="M564.81,599.4c0,.15,0,.29,0,.44A8.36,8.36,0,0,0,579,605.77a7.77,7.77,0,0,0,11.36-10.42A9.24,9.24,0,1,0,584.2,578a8.35,8.35,0,0,0-16.08,4.46,8.67,8.67,0,1,0-3.31,17Z"/>
    <circle class="cls-10" cx="577.88" cy="591" r="4.6"/>
  </g>
  <g>
    <path class="cls-9" d="M485.42,605.11c0,.11,0,.22,0,.33a6.27,6.27,0,0,0,10.69,4.45,5.83,5.83,0,0,0,8.53-7.82A6.93,6.93,0,1,0,500,589a6.27,6.27,0,0,0-12.07,3.35,6.5,6.5,0,1,0-2.49,12.73Z"/>
    <circle class="cls-10" cx="495.24" cy="598.81" r="3.45"/>
    <circle class="cls-10" cx="526.13" cy="613.04" r="2.44"/>
  </g>
  <g>
    <path class="cls-9" d="M535.93,575.55l-.38.12a7.49,7.49,0,0,0-.48,13.83,7,7,0,0,0,12.34,6.24A8.28,8.28,0,1,0,560,585,7.49,7.49,0,0,0,551.21,573a7.77,7.77,0,1,0-15.28,2.59Z"/>
    <circle class="cls-10" cx="547.11" cy="583.87" r="2.91" transform="translate(-170.76 230.46) rotate(-20.65)"/>
  </g>
  <g>
    <path class="cls-9" d="M204.19,502.1c0,.11,0,.21,0,.32a6,6,0,0,0,10.26,4.28,5.6,5.6,0,0,0,8.19-7.51,6.66,6.66,0,1,0-4.46-12.53,6,6,0,0,0-11.59,3.21,6.24,6.24,0,1,0-2.39,12.23Z"/>
    <circle class="cls-11" cx="213.61" cy="496.05" r="2.34"/>
  </g>
  <g>
    <path class="cls-9" d="M582.44,613.74l-.33.22a7.49,7.49,0,0,0,3.42,13.4,7,7,0,0,0,13.59,2.53,8.28,8.28,0,1,0,9.12-13.8A7.49,7.49,0,0,0,596.38,607a7.77,7.77,0,1,0-13.94,6.77Z"/>
    <circle class="cls-10" cx="595.5" cy="618.59" r="1.75" transform="translate(-252.23 482.11) rotate(-36.94)"/>
  </g>
  <g>
    <path class="cls-9" d="M478.5,630.69c0,.13,0,.26,0,.39a7.49,7.49,0,0,0,12.77,5.32,7,7,0,0,0,10.19-9.34,8.28,8.28,0,1,0-5.55-15.58,7.49,7.49,0,0,0-14.42,4,7.77,7.77,0,1,0-3,15.21Z"/>
    <circle class="cls-10" cx="490.23" cy="623.16" r="2.91"/>
  </g>
  <g>
    <path class="cls-9" d="M504.2,590c0,.13,0,.26,0,.39a7.49,7.49,0,0,0,12.77,5.32,7,7,0,0,0,10.19-9.34,8.28,8.28,0,1,0-5.55-15.58,7.49,7.49,0,0,0-14.42,4,7.77,7.77,0,1,0-3,15.21Z"/>
    <circle class="cls-10" cx="515.92" cy="582.48" r="2.06"/>
  </g>
  <g>
    <path class="cls-9" d="M545.26,623c0,.15,0,.31,0,.46a8.84,8.84,0,0,0,15.06,6.28,8.22,8.22,0,0,0,12-11,9.77,9.77,0,1,0-6.54-18.38,8.83,8.83,0,0,0-17,4.72,9.16,9.16,0,1,0-3.5,17.94Z"/>
    <circle class="cls-10" cx="559.09" cy="614.16" r="3.44"/>
  </g>
  <g>
    <path class="cls-12" d="M193.69,278A42.31,42.31,0,0,1,236,235.65h96.73A42.33,42.33,0,0,1,375.06,278Z"/>
    <path class="cls-12" d="M348.89,267.95c-11.67,0-11.57,1.44-16.08,10.33,0,8.8,9.46,15.94,21.13,15.94s21.13-7.14,21.13-15.94v-.68Z"/>
    <path class="cls-12" d="M250.7,278.28c0,8.8,12.33,15.94,27.55,15.94s27.55-7.14,27.55-15.94c-15.34-7.33-18.91-10.33-34.13-10.33S256.57,269.39,250.7,278.28Z"/>
    <path class="cls-12" d="M217.05,267.95c17,0,20.93,3,38,10.33,0,8.8-13.74,15.94-30.7,15.94s-30.7-7.14-30.7-15.94V278Z"/>
    <path class="cls-12" d="M293.76,278.28c0,8.8,11.37,15.94,25.39,15.94s25.39-7.14,25.39-15.94c-14.14-7.33-17.43-10.33-31.45-10.33S299.17,269.39,293.76,278.28Z"/>
  </g>
  <g>
    <circle class="cls-9" cx="316.2" cy="323.65" r="17.3"/>
    <circle class="cls-9" cx="283.62" cy="323.65" r="17.3"/>
  </g>
  <g>
    <circle class="cls-13" cx="341.31" cy="345.24" r="11.03"/>
    <circle class="cls-13" cx="253.49" cy="345.24" r="11.03"/>
  </g>
  <circle class="cls-1" cx="399.5" cy="586.08" r="20.67"/>
  <g>
    <g>
      <g>
        <path class="cls-2" d="M533.58,318.13c39,0,73.43,35.22,73.43,75.22C607,393.35,533.58,392.82,533.58,318.13Z"/>
        <path class="cls-2" d="M533.57,318.13c-39,0-73.43,35.22-73.43,75.22C460.14,393.35,533.57,392.82,533.57,318.13Z"/>
      </g>
      <polygon class="cls-2" points="538.34 338.46 528.8 338.46 528.8 321.4 533.57 318.13 538.34 321.4 538.34 338.46"/>
    </g>
    <g>
      <path class="cls-2" d="M455.29,485.87c4.42,12.87,3.07,28.47,11.84,35,3.64,1.92,8,2.61,14.41,2.55,30.33-1.62,40.64-36.66,19.21-60.55Z"/>
      <path class="cls-2" d="M611.86,485.87c-4.79,14-3.09,30.71-14.51,36.11a28.47,28.47,0,0,1-11.75,1.39c-30.33-1.62-40.64-36.66-19.21-60.55Z"/>
    </g>
  </g>
  <path class="cls-14" d="M280.4,512.57l-39.33-115.7h90.11l-39.33,115.7C289.2,520.36,283,520.36,280.4,512.57Z"/>
  <g>
    <path class="cls-5" d="M259.6,428.29v-19a6.41,6.41,0,0,1,9.58-5.56l16.63,9.5a6.41,6.41,0,0,1,0,11.13l-16.63,9.5A6.41,6.41,0,0,1,259.6,428.29Z"/>
    <path class="cls-5" d="M314,428.29v-19a6.41,6.41,0,0,0-9.58-5.56l-16.63,9.5a6.41,6.41,0,0,0,0,11.13l16.63,9.5A6.41,6.41,0,0,0,314,428.29Z"/>
  </g>
  <g>
    <path class="cls-9" d="M331.18,396.87h-45l20.54,16.8a7.76,7.76,0,0,0,10.78-.93Z"/>
    <path class="cls-9" d="M241.08,396.87h45l-20.54,16.8a7.76,7.76,0,0,1-10.78-.93Z"/>
  </g>
  <circle class="cls-9" cx="286.12" cy="449.61" r="2.9"/>
  <circle class="cls-9" cx="286.12" cy="478.7" r="2.9"/>
  <g>
    <circle class="cls-15" cx="322.61" cy="327.66" r="9.55"/>
    <circle class="cls-15" cx="290.03" cy="327.66" r="9.55"/>
    <path class="cls-15" d="M293.74,355.79a26.6,26.6,0,0,0,4.59-.4,25.71,25.71,0,0,0,9.4-3.55,1.79,1.79,0,0,0-2-3c-.53.36-12.76,8.41-26.85-1.82a1.79,1.79,0,0,0-2.1,2.9A28.54,28.54,0,0,0,293.74,355.79Z"/>
  </g>
  <g>
    <g>
      <path class="cls-7" d="M578.68,356.18a.62.62,0,0,0,.25.07c13,.92,23.16-6,23.59-6.29a.62.62,0,0,0-.71-1c-.1.07-10.22,7-22.79,6.07a.62.62,0,0,0-.34,1.17Z"/>
      <path class="cls-7" d="M605.6,343.21c-1.52,1-3.76,4.72-4.15,6.81a12.61,12.61,0,0,0,7.87-1.29,3.33,3.33,0,1,0-3.72-5.52Z"/>
      <path class="cls-7" d="M594,345c-.35,1.81.68,6,1.89,7.75a12.61,12.61,0,0,0,4.65-6.48A3.33,3.33,0,1,0,594,345Z"/>
      <path class="cls-7" d="M603.82,351.91c-1.75-.56-6,0-7.92.95a12.61,12.61,0,0,0,5.87,5.39,3.33,3.33,0,0,0,2-6.34Z"/>
      <path class="cls-7" d="M587.19,347.24c-.69,1.71-.47,6,.39,8a12.61,12.61,0,0,0,5.79-5.48,3.33,3.33,0,1,0-6.18-2.48Z"/>
      <path class="cls-7" d="M595.52,355.88c-1.61-.89-5.92-1.19-8-.57a12.61,12.61,0,0,0,4.74,6.41,3.33,3.33,0,1,0,3.21-5.84Z"/>
    </g>
    <g>
      <path class="cls-7" d="M523.27,355.83a.77.77,0,0,1-.31-.1c-14.14-8.09-19.86-22.3-20.09-22.9a.78.78,0,0,1,1.44-.57c.06.14,5.77,14.31,19.42,22.12a.78.78,0,0,1-.46,1.45Z"/>
      <path class="cls-7" d="M504.37,323.68c.87,2.12.63,7.51-.43,9.94-3.21-1.4-6.4-4.67-7.26-6.8a4.16,4.16,0,1,1,7.69-3.14Z"/>
      <path class="cls-7" d="M515.15,333.59c-.89,2.12-4.87,5.75-7.34,6.72-1.28-3.26-1.21-7.83-.32-9.94a4.16,4.16,0,1,1,7.66,3.22Z"/>
      <path class="cls-7" d="M500.17,333.94c2.21.63,6.29,4.15,7.55,6.48-3.08,1.66-7.63,2.14-9.83,1.51a4.16,4.16,0,1,1,2.28-8Z"/>
    </g>
    <path class="cls-7" d="M492.88,367.49c1.93-1.92,4.16-7.91,4.13-11.06-4.15,0-9.15,2.15-11.08,4.07a4.93,4.93,0,1,0,7,7Z"/>
    <path class="cls-7" d="M467.82,359.58c4.33-1.25,9-4.84,10.45-7.61-3.67-2-10.59-2.61-13.2-1.85a4.93,4.93,0,0,0,2.75,9.47Z"/>
  </g>
  <g>
    <g>
      <path class="cls-9" d="M564.32,352.53c0,.13,0,.27,0,.4a7.63,7.63,0,0,0,13,5.42,7.1,7.1,0,0,0,10.38-9.52A8.44,8.44,0,1,0,582,333,7.63,7.63,0,0,0,567.34,337a7.91,7.91,0,1,0-3,15.49Z"/>
      <circle class="cls-10" cx="576.26" cy="344.87" r="3.17"/>
    </g>
    <g>
      <path class="cls-9" d="M495.51,358.53c0,.09-.07.17-.1.26a5.36,5.36,0,0,0,7.53,6.4,5,5,0,0,0,9-4.14,5.92,5.92,0,1,0-.38-11.82,5.35,5.35,0,0,0-10.69-.42,5.55,5.55,0,1,0-5.34,9.71Z"/>
      <circle class="cls-10" cx="505.13" cy="355.96" r="2.41" transform="translate(12.15 728.57) rotate(-72.26)"/>
    </g>
    <g>
      <path class="cls-9" d="M542,360.18c0,.11,0,.21,0,.32a6,6,0,0,0,10.29,4.29,5.61,5.61,0,0,0,8.21-7.53A6.67,6.67,0,1,0,556,344.7a6,6,0,0,0-11.62,3.22A6.26,6.26,0,1,0,542,360.18Z"/>
      <circle class="cls-10" cx="551.4" cy="354.12" r="2.35"/>
    </g>
    <g>
      <path class="cls-9" d="M473.77,352.49c0,.12,0,.24,0,.36a6.92,6.92,0,0,0,11.79,4.91,6.43,6.43,0,0,0,9.41-8.63,7.65,7.65,0,1,0-5.12-14.39,6.92,6.92,0,0,0-13.32,3.69,7.18,7.18,0,1,0-2.74,14.05Z"/>
      <circle class="cls-10" cx="484.6" cy="345.54" r="2.69"/>
    </g>
    <g>
      <path class="cls-9" d="M518.1,360.74c0,.13,0,.25.08.38a7.35,7.35,0,0,0,13.43,1.95A6.84,6.84,0,0,0,539,351.7a8.13,8.13,0,1,0-9.07-13.46,7.35,7.35,0,0,0-12.73,7.32,7.62,7.62,0,1,0,.89,15.18Zm7.48-11.41a7.35,7.35,0,0,0,2-.87,8.09,8.09,0,0,0,2.76,3.05A6.84,6.84,0,0,0,529,353a7.33,7.33,0,0,0-4.35-1c0-.23-.08-.46-.14-.69a7.62,7.62,0,0,0-.68-1.73A7.35,7.35,0,0,0,525.58,349.34Z"/>
      <path class="cls-10" d="M524.23,352.86a4.31,4.31,0,0,0,5.42.62,3,3,0,0,0,.43-4.66,4.31,4.31,0,0,0-5.42-.62A3,3,0,0,0,524.23,352.86Z"/>
    </g>
  </g>
  <g>
    <path class="cls-15" d="M560.82,409.59a1.6,1.6,0,0,0,.65-.14l4.22-1.86a1.61,1.61,0,1,0-1.3-3l-4.22,1.86a1.61,1.61,0,0,0,.65,3.09Z"/>
    <path class="cls-15" d="M503,409.59a1.61,1.61,0,0,0,.65-3.09l-4.22-1.86a1.61,1.61,0,1,0-1.3,3l4.22,1.86A1.61,1.61,0,0,0,503,409.59Z"/>
  </g>
  <g>
    <circle class="cls-9" cx="546.76" cy="414.41" r="15.59"/>
    <circle class="cls-9" cx="516.32" cy="414.41" r="15.59"/>
  </g>
  <g>
    <path class="cls-15" d="M532.47,440.79c3.78,0,7.5-2.6,8.29-5.8a1.62,1.62,0,0,0-3.14-.78c-.39,1.58-2.68,3.35-5.16,3.35s-4.92-2-5.13-3.23a1.61,1.61,0,1,0-3.19.53C524.67,438,528.63,440.79,532.47,440.79Z"/>
    <circle class="cls-15" cx="511.79" cy="409.15" r="8.61"/>
    <circle class="cls-15" cx="542.23" cy="409.15" r="8.61"/>
  </g>
  <g>
    <g>
      <path class="cls-9" d="M153.05,98a3.74,3.74,0,0,1-3,1.12q-.15,1.57-.67,5.47-.75,5.25-.82,5.84-6.67,49.68-27.8,49.68-6.22,0-9.7-3.52a12.06,12.06,0,0,1-3.48-8.84q0-9.51,8.09-16.82t21.28-12.1q.82-5.32,1.27-9.52L139.53,98q-4.5-.45-8.39-.45-10.42,0-15.36,2t-4.95,6.59a9.92,9.92,0,0,0,1.5,4.87,3,3,0,0,1,.45,1.57,3.53,3.53,0,0,1-1.61,2.81,5.61,5.61,0,0,1-3.48,1.24,4.09,4.09,0,0,1-3.67-2,15.11,15.11,0,0,1-2.1-8q0-18,31.47-18a67.53,67.53,0,0,1,16.33,1.8q4.27,1,4.27,4.2A5.17,5.17,0,0,1,153.05,98Zm-24,48.55q3.67-5.54,6.44-19.41-18.28,8-18.28,19.63a5.83,5.83,0,0,0,1.2,3.93,4.12,4.12,0,0,0,3.3,1.39Q125.37,152.08,129,146.54Z"/>
      <path class="cls-9" d="M152.79,149.09a13.48,13.48,0,0,1-2.77-8.84,24.37,24.37,0,0,1,2.77-11.35,23.66,23.66,0,0,1,7.38-8.62,16.65,16.65,0,0,1,9.78-3.26,2.92,2.92,0,0,1,2.21.64,5.4,5.4,0,0,1,.94,2.29,17.63,17.63,0,0,1,3.3-.3q3.67,0,3.67,2.62a56.25,56.25,0,0,1-1.12,7.49,72.68,72.68,0,0,0-1.72,12,2.72,2.72,0,0,0,.56,1.8,1.81,1.81,0,0,0,1.46.67q1.42,0,3.45-1.84a64.16,64.16,0,0,0,5.47-6,2.63,2.63,0,0,1,2-1,1.73,1.73,0,0,1,1.54.9,4.64,4.64,0,0,1,.56,2.47,6.89,6.89,0,0,1-1.42,4.65,37.8,37.8,0,0,1-6.52,6.44,11.11,11.11,0,0,1-6.67,2.62,7,7,0,0,1-4.53-1.69,10.27,10.27,0,0,1-3.11-4.61q-3.9,6.29-9.82,6.29A9.11,9.11,0,0,1,152.79,149.09Zm13.26-6.14a12.61,12.61,0,0,0,2.17-5.17L171,124a9.08,9.08,0,0,0-5.81,2.36,15.9,15.9,0,0,0-4.23,6,20.31,20.31,0,0,0-1.57,7.94,5.3,5.3,0,0,0,.94,3.45,3.18,3.18,0,0,0,2.58,1.12A4.11,4.11,0,0,0,166.05,142.94Z"/>
      <path class="cls-9" d="M221.16,136.28a4.64,4.64,0,0,1,.56,2.47,6.9,6.9,0,0,1-1.42,4.65,27.39,27.39,0,0,1-7.83,6.22,21.71,21.71,0,0,1-10.83,2.85q-7.87,0-12.21-4.27t-4.35-11.69a21.67,21.67,0,0,1,2.17-9.63,17.81,17.81,0,0,1,6-7.08,15.17,15.17,0,0,1,8.73-2.62,9.5,9.5,0,0,1,7,2.58,9.39,9.39,0,0,1,2.62,7,12.11,12.11,0,0,1-3.71,8.88q-3.71,3.71-12.55,5.88,1.87,3.45,7.12,3.45a16.39,16.39,0,0,0,7.68-2.36,25.37,25.37,0,0,0,7.46-6.18,2.63,2.63,0,0,1,2-1A1.73,1.73,0,0,1,221.16,136.28Zm-25.1-8.54a15,15,0,0,0-1.91,7.79v.15a17,17,0,0,0,7-3.15,6.19,6.19,0,0,0,2.55-4.87,3.26,3.26,0,0,0-.79-2.29,2.75,2.75,0,0,0-2.14-.86Q198,124.51,196.06,127.73Z"/>
      <path class="cls-9" d="M272.67,129.23a2.08,2.08,0,0,1,1.72.75,3.15,3.15,0,0,1,.6,2,6.35,6.35,0,0,1-.9,3.63,5.09,5.09,0,0,1-2.7,1.91,23.54,23.54,0,0,1-7.34,1.12,21.05,21.05,0,0,1-6.22-.9Q255.66,141.3,253,145a26.11,26.11,0,0,1-5.13,5.84,7.94,7.94,0,0,1-4.83,1.57,5.08,5.08,0,0,1-4.53-2.32q-1.54-2.32-1.91-7.64l-.37-5.47a72,72,0,0,1-4.16,9.59,13.48,13.48,0,0,1-3.67,4.57,7.36,7.36,0,0,1-4.31,1.27,5.67,5.67,0,0,1-4.83-2.4q-1.76-2.4-2.21-7.57-.9-10.49-.9-18.36v-2.62a4.26,4.26,0,0,1,1.35-3.45,6.25,6.25,0,0,1,3.82-1,4.15,4.15,0,0,1,2.88.86,3.78,3.78,0,0,1,.94,2.88q0,8.62,1,22.4,5.09-10.71,9.37-22.33a6.08,6.08,0,0,1,2-3,4.89,4.89,0,0,1,2.81-.79,3.81,3.81,0,0,1,2.81.82,4.22,4.22,0,0,1,.79,2.92q0,8.62,1,22.4,4.5-6.67,6.74-10.64a11.12,11.12,0,0,1-1.12-5.17,11.54,11.54,0,0,1,1.12-4.95,10.36,10.36,0,0,1,3.07-3.9,7.06,7.06,0,0,1,4.42-1.5,4.46,4.46,0,0,1,3.52,1.54,6.56,6.56,0,0,1,1.35,4.46,20.55,20.55,0,0,1-1.8,7.72,53.22,53.22,0,0,0,7.57-1.12l2-.37A2.66,2.66,0,0,1,272.67,129.23Z"/>
      <path class="cls-9" d="M308.18,130.06a5.2,5.2,0,0,1,.52,2.47q0,3.6-2.17,4.27a34.1,34.1,0,0,1-9.89,1.8A18.71,18.71,0,0,1,291,148.68a13.82,13.82,0,0,1-9.52,3.78,13.29,13.29,0,0,1-7.68-2.17,13.79,13.79,0,0,1-4.83-5.77,18.46,18.46,0,0,1-1.65-7.79,22.86,22.86,0,0,1,2.17-10.15,17.06,17.06,0,0,1,6-7,15.09,15.09,0,0,1,8.47-2.51,11.67,11.67,0,0,1,9.18,3.93,16.86,16.86,0,0,1,4.08,9.7,45.31,45.31,0,0,0,8.39-1.5,4.44,4.44,0,0,1,1-.15A1.64,1.64,0,0,1,308.18,130.06Zm-21.92,12.51a10.83,10.83,0,0,0,2.36-5.62,10.34,10.34,0,0,1-3.56-4.12,12.19,12.19,0,0,1-1.24-5.39,13,13,0,0,1,.22-2.4h-.37a5.88,5.88,0,0,0-5,2.88q-2,2.89-2,8.13a10.45,10.45,0,0,0,1.61,6.29,4.65,4.65,0,0,0,3.78,2.17A5.43,5.43,0,0,0,286.27,142.57Z"/>
      <path class="cls-9" d="M303.58,149.46q-1.16-3-1.16-9.59a61,61,0,0,1,2.77-18.51,5.64,5.64,0,0,1,2.21-3.18,7.79,7.79,0,0,1,4.31-1,4.23,4.23,0,0,1,2.1.38,1.55,1.55,0,0,1,.6,1.42,28.57,28.57,0,0,1-1.12,5.39q-.75,3-1.2,5.25a53.29,53.29,0,0,0-.75,5.54,42.58,42.58,0,0,1,5.54-10.49,21.73,21.73,0,0,1,6-5.77,11,11,0,0,1,5.43-1.72,4.35,4.35,0,0,1,4.87,4.87,59.42,59.42,0,0,1-.82,7.34q-.75,4.57-1.2,8.65a83.72,83.72,0,0,0-.45,9.1,5.86,5.86,0,0,1-1.16,4.08,5,5,0,0,1-3.78,1.24,4.56,4.56,0,0,1-3.6-1.27,5.63,5.63,0,0,1-1.12-3.82,75.21,75.21,0,0,1,1-9.89,70.54,70.54,0,0,0,.9-7.64q0-1.2-.82-1.2-1,0-2.74,2.51a40.23,40.23,0,0,0-3.6,6.63,51.52,51.52,0,0,0-3,8.69,11.71,11.71,0,0,1-1.91,4.76,4.31,4.31,0,0,1-3.41,1.24A4.09,4.09,0,0,1,303.58,149.46Z"/>
    </g>
    <path class="cls-9" d="M386.68,139.9l4.46,4.93a3.7,3.7,0,0,1,1.18,2.57,2.65,2.65,0,0,1-1,2.13,4.14,4.14,0,0,1-2.72.85,4.47,4.47,0,0,1-3.59-1.44l-4.31-5.08a25.94,25.94,0,0,1-11.6,3,18.59,18.59,0,0,1-7.19-1.28,11,11,0,0,1-4.75-3.54,8.26,8.26,0,0,1-1.67-5,11.81,11.81,0,0,1,2.34-7,25.3,25.3,0,0,1,7.62-6.44q-3-5.44-3-9.6a13.39,13.39,0,0,1,1.54-6.52,10.85,10.85,0,0,1,4.29-4.36,12.64,12.64,0,0,1,6.29-1.54,9.26,9.26,0,0,1,7,2.59,9.84,9.84,0,0,1,2.49,7.11,12.6,12.6,0,0,1-2.18,7.06q-2.18,3.31-7.72,6.75,3.28,4.47,8.68,10.52a47.62,47.62,0,0,0,6.72-7.65,3.17,3.17,0,0,1,1.34-1.15,4.77,4.77,0,0,1,1.9-.33q3,0,3,1.69a6,6,0,0,1-1.13,2.87A39.27,39.27,0,0,1,386.68,139.9Zm-9.65-.41q-5.44-6.52-8.57-11.14-5.8,3.8-5.8,7.9a4.28,4.28,0,0,0,1.8,3.67,8.22,8.22,0,0,0,4.93,1.31A17.49,17.49,0,0,0,377,139.49Zm-6.62-30.72a7.29,7.29,0,0,0-1.39,4.54,14.69,14.69,0,0,0,2.16,7.08,16.33,16.33,0,0,0,5.44-4.57,8.67,8.67,0,0,0,1.44-4.82,4.27,4.27,0,0,0-1-3,3.68,3.68,0,0,0-2.87-1.08A4.51,4.51,0,0,0,370.41,108.77Z"/>
    <g>
      <path class="cls-9" d="M430.36,151.22q-1.2-1.24-1.2-4.68a46.41,46.41,0,0,1,.49-6q.49-3.63,1.61-10,1.95-11.76,3.07-20.38a74.9,74.9,0,0,0,.67-9q0-3.37-2.47-3.37a8.52,8.52,0,0,0-4.68,2,31,31,0,0,0-6,6.33,2.93,2.93,0,0,1-2.32,1.42,2.28,2.28,0,0,1-1.84-1,3.62,3.62,0,0,1-.79-2.29,6.62,6.62,0,0,1,.49-2.44A13.5,13.5,0,0,1,419,99a28.31,28.31,0,0,1,8-7.75,16.68,16.68,0,0,1,8.84-2.73,7.82,7.82,0,0,1,6.33,2.62q2.21,2.62,2.21,7.64a35.64,35.64,0,0,1-.37,4.76q-.37,2.74-.67,4.46t-.45,2.4q4.27-12.21,9.59-17a17,17,0,0,1,11.69-4.83A9.38,9.38,0,0,1,471.83,92q2.81,3.45,2.81,9.74a35.12,35.12,0,0,1-.67,6.14q3.74-10.34,8.77-14.84a16.79,16.79,0,0,1,11.54-4.5q5.24,0,8.05,3.37t2.81,9.44a40.79,40.79,0,0,1-1,8l-4.57,21.43a33.55,33.55,0,0,0-.75,6.44A6.72,6.72,0,0,0,500.3,142a5.3,5.3,0,0,0,4.08,1.57,8.35,8.35,0,0,0,4.83-1.65,31.66,31.66,0,0,0,5.58-5.47,2.63,2.63,0,0,1,2-1,1.73,1.73,0,0,1,1.54.9,4.64,4.64,0,0,1,.56,2.47,7.08,7.08,0,0,1-1.42,4.65,29,29,0,0,1-7.72,6.89,16,16,0,0,1-8,2.17q-6.37,0-10-3.78t-3.6-10.15a66.48,66.48,0,0,1,1.8-12.81L493,112l.52-2.4q.38-1.72.6-3.26a20.84,20.84,0,0,0,.22-3,6.39,6.39,0,0,0-1-3.93,3.43,3.43,0,0,0-2.88-1.31q-3.52,0-7.38,4.53t-7.34,15q-3.48,10.49-5.66,27.27-.52,4.5-1.84,6a5.28,5.28,0,0,1-4.23,1.54,5,5,0,0,1-3.71-1.2q-1.16-1.2-1.16-4.5a51.55,51.55,0,0,1,.82-8.05q.82-5,2.1-11.73,3.45-18.13,3.45-23.38a6.66,6.66,0,0,0-1.09-4.2,3.94,3.94,0,0,0-3.26-1.35q-3.67,0-7.57,4.16T446,117q-3.71,10.6-6.18,28.66a13.47,13.47,0,0,1-1.54,5.32q-1,1.5-3.93,1.5A5.36,5.36,0,0,1,430.36,151.22Z"/>
      <path class="cls-9" d="M515,149a16.74,16.74,0,0,1-2.21-9.14,56,56,0,0,1,.86-8.65,80.54,80.54,0,0,1,2.21-9.85,6.35,6.35,0,0,1,1.8-3.3,5.77,5.77,0,0,1,3.6-.9q3.82,0,3.82,2.55a58.72,58.72,0,0,1-1.42,8.69,64.72,64.72,0,0,0-1.8,11.16,7.89,7.89,0,0,0,.6,3.45,2.09,2.09,0,0,0,2,1.2q1.35,0,3.37-1.87a67.11,67.11,0,0,0,5.39-5.92,2.63,2.63,0,0,1,2-1,1.73,1.73,0,0,1,1.54.9,4.64,4.64,0,0,1,.56,2.47,6.9,6.9,0,0,1-1.42,4.65q-7.42,9.07-13.86,9.07Q517.19,152.46,515,149Zm3-38.25a5.3,5.3,0,0,1-1.57-4.08,5.53,5.53,0,0,1,2.06-4.38,7.63,7.63,0,0,1,5.13-1.76,7.09,7.09,0,0,1,4.5,1.35,4.57,4.57,0,0,1,1.72,3.82,6.1,6.1,0,0,1-1.95,4.76,7.42,7.42,0,0,1-5.17,1.76A6.72,6.72,0,0,1,517.95,110.76Z"/>
      <path class="cls-9" d="M532.59,149.46q-1.16-3-1.16-9.59a61,61,0,0,1,2.77-18.51,5.64,5.64,0,0,1,2.21-3.18,7.8,7.8,0,0,1,4.31-1,4.22,4.22,0,0,1,2.1.38,1.55,1.55,0,0,1,.6,1.42,28.62,28.62,0,0,1-1.12,5.39q-.75,3-1.2,5.25a53.83,53.83,0,0,0-.75,5.54,42.58,42.58,0,0,1,5.54-10.49,21.77,21.77,0,0,1,6-5.77,11,11,0,0,1,5.43-1.72q4.87,0,4.87,4.87a60.35,60.35,0,0,1-1.65,10.56,52,52,0,0,0-1.42,8.62q0,3,2.17,3a5.86,5.86,0,0,0,3.56-1.84,60.24,60.24,0,0,0,5.51-6,2.63,2.63,0,0,1,2-1,1.73,1.73,0,0,1,1.54.9,4.64,4.64,0,0,1,.56,2.47,6.9,6.9,0,0,1-1.42,4.65,33.14,33.14,0,0,1-6.93,6.52,14.53,14.53,0,0,1-8.43,2.55,7.28,7.28,0,0,1-5.77-2.21q-2-2.21-1.95-6.41a46.79,46.79,0,0,1,1-7.49,38.9,38.9,0,0,0,1-6.52q0-1.2-.82-1.2-1,0-2.73,2.51a40.22,40.22,0,0,0-3.6,6.63,51.61,51.61,0,0,0-3,8.69,11.72,11.72,0,0,1-1.91,4.76,4.31,4.31,0,0,1-3.41,1.24A4.09,4.09,0,0,1,532.59,149.46Z"/>
      <path class="cls-9" d="M591.48,136.46a4.53,4.53,0,0,1,.56,2.36,5.74,5.74,0,0,1-.53,2.7,4.87,4.87,0,0,1-1.65,1.72q-5.24,3.45-14,9.52-2.92,15.58-7.57,24.5t-11.84,8.92a8.46,8.46,0,0,1-6.26-2.36,8.36,8.36,0,0,1-2.36-6.18q0-5.32,4.12-11.35t15.51-14.87l.52-3.82q1-7.19,1.65-14.16.45-4,1.42-12.06a4.55,4.55,0,0,1,1.65-3.18,6.86,6.86,0,0,1,4.12-1,4.52,4.52,0,0,1,3,.67,2.46,2.46,0,0,1,.71,1.87q0,3.45-2.47,19l-.75,5.17q6-4.5,10.94-7.79a3.4,3.4,0,0,1,1.72-.6A1.72,1.72,0,0,1,591.48,136.46Zm-29.93,38q2.32-4.42,4.35-14.24a42.45,42.45,0,0,0-8.2,8.8,13.38,13.38,0,0,0-2.51,6.93q0,2.92,2.1,2.92T561.55,174.49Zm10.19-63.72a5.29,5.29,0,0,1-1.57-4.08,5.53,5.53,0,0,1,2.06-4.38,7.63,7.63,0,0,1,5.13-1.76,7.08,7.08,0,0,1,4.49,1.35,4.57,4.57,0,0,1,1.72,3.82,6.09,6.09,0,0,1-1.95,4.76,7.41,7.41,0,0,1-5.17,1.76A6.72,6.72,0,0,1,571.74,110.76Z"/>
      <path class="cls-9" d="M627.18,130.06a5.19,5.19,0,0,1,.53,2.47q0,3.6-2.17,4.27a34.09,34.09,0,0,1-9.89,1.8A18.7,18.7,0,0,1,610,148.68a13.83,13.83,0,0,1-9.52,3.78,13.29,13.29,0,0,1-7.68-2.17,13.79,13.79,0,0,1-4.83-5.77,18.46,18.46,0,0,1-1.65-7.79,22.88,22.88,0,0,1,2.17-10.15,17.06,17.06,0,0,1,6-7,15.1,15.1,0,0,1,8.47-2.51,11.67,11.67,0,0,1,9.18,3.93,16.86,16.86,0,0,1,4.08,9.7,45.33,45.33,0,0,0,8.39-1.5,4.45,4.45,0,0,1,1-.15A1.64,1.64,0,0,1,627.18,130.06Zm-21.91,12.51a10.83,10.83,0,0,0,2.36-5.62,10.34,10.34,0,0,1-3.56-4.12,12.19,12.19,0,0,1-1.24-5.39,13,13,0,0,1,.22-2.4h-.37a5.88,5.88,0,0,0-5,2.88q-2,2.89-2,8.13a10.45,10.45,0,0,0,1.61,6.29,4.65,4.65,0,0,0,3.78,2.17A5.44,5.44,0,0,0,605.27,142.57Z"/>
      <path class="cls-9" d="M626.4,150.25a13.72,13.72,0,0,1-4.68-5.81,19,19,0,0,1-1.57-7.72,23.22,23.22,0,0,1,2.14-10.15,17.23,17.23,0,0,1,5.81-7,14.26,14.26,0,0,1,8.24-2.51,12.83,12.83,0,0,1,7.57,2.21,13.63,13.63,0,0,1,4.72,5.81,19,19,0,0,1,1.57,7.72A22.9,22.9,0,0,1,648,143a17.4,17.4,0,0,1-5.88,7,14.32,14.32,0,0,1-8.2,2.51A12.66,12.66,0,0,1,626.4,150.25Zm12.66-8.65q1.76-2.77,1.76-8.09,0-4.12-1.5-6.22a4.35,4.35,0,0,0-3.6-2.1,5.19,5.19,0,0,0-4.46,2.73q-1.76,2.74-1.76,8.13,0,4.27,1.5,6.29a4.5,4.5,0,0,0,3.75,2Q637.3,144.37,639.06,141.6Z"/>
    </g>
  </g>
</svg>
