<?xml version="1.0" encoding="utf-8"?>
<!-- Generator: Adobe Illustrator 21.1.0, SVG Export Plug-In . SVG Version: 6.00 Build 0)  -->
<svg version="1.1" id="레이어_1" xmlns="http://www.w3.org/2000/svg" xmlns:xlink="http://www.w3.org/1999/xlink" x="0px"
	 y="0px" viewBox="0 0 320 275" style="enable-background:new 0 0 320 275;" xml:space="preserve">
<style type="text/css">
	.st0{fill:#FFFFFF;}
	.st1{fill:#FFEDCC;}
	.st2{fill:#665046;}
	.st3{fill:#374259;}
	.st4{fill:#FEBAAD;}
	.st5{fill:#65BC85;}
	.st6{fill:#FFE576;}
	.st7{fill:#F9C94F;}
	.st8{fill:url(#SVGID_1_);}
	.st9{fill:#97B9CE;}
	.st10{fill:#5B4946;}
	.st11{fill:#FFD9D9;}
	.st12{fill:#EF6285;}
	.st13{fill:#FFF298;}
	.st14{fill:#FBD64D;}
	.st15{fill:#FFE772;}
	.st16{fill:#F9CA46;}
	.st17{fill:#FFEAC5;}
</style>
<title>invitation_img</title>
<g id="character">
	<path class="st0" d="M185.3,282.9c2.2,0,3.9-1.5,5.4-3.3c20.6-25.4,29.6-41.9,29.7-42c2.3-2.4-4.6-5.5-7-7.8s-6.5-2.5-8.5,0.1
		c-5.9,7.7-10.2,16.9-24.9,44.3c-1.5,3-0.3,6.6,2.6,8.1C183.4,282.7,184.4,282.9,185.3,282.9L185.3,282.9z"/>
	<path class="st1" d="M228.5,208.4c5.5-0.5,16.7-0.9,14.3,3.7c-3,5.8-0.1,11.8-0.1,11.8c-1.6,4.6-7.1,6.8-11.4,7.8v0.9
		c0,0-1.1-0.1-2.8-0.3c-1.7,0.3-2.8,0.3-2.8,0.3v-0.9c-4.3-1-9.8-3.2-11.4-7.8c0,0,2.9-6.1-0.1-11.8
		C211.7,207.5,223,207.9,228.5,208.4z"/>
	<g>
		<path class="st2" d="M256.9,176.7l3.2,4.7c0.4,7.4-0.5,14.8-2.6,21.8c-2.7,9,2.7,13.6,4.9,19.2c3,7.5-0.9,16.8-11.4,16.2
			c-13.1-0.7-17.6-15.9-8.3-26.2C252.6,201.4,256.9,176.7,256.9,176.7z"/>
		<path class="st2" d="M200.1,176.7l-3.2,4.7c-0.4,7.4,0.5,14.8,2.6,21.8c2.7,9-2.7,13.6-4.9,19.2c-2.9,7.5,0.9,16.8,11.4,16.2
			c13.1-0.7,17.6-15.9,8.3-26.2C204.4,201.3,200.1,176.7,200.1,176.7z"/>
	</g>
	<path class="st1" d="M242.3,212.6c10-5.9,17.9-18.8,17.9-30.2c0-17.3-14.9-32.5-31.8-32.5l0,0c-16.9,0-31.8,15.2-31.8,32.5
		c0,11.4,7.7,24.3,17.9,30.2H242.3z"/>
	<rect x="102" y="172.3" class="st1" width="39" height="11.9"/>
	<path class="st3" d="M168.9,249.9l4,41.4h22.8c0,0-3-50.8-6-68.6c-5.5-32.4-34.7-34.9-48.8-38.8l-8,2.7l-11.6-2.7l-11,2.3l-8.5-2.3
		c-14.1,3.9-43.3,7.6-44.6,38.8l-1.4,68.6h111V250C166.9,248.3,168.9,248.4,168.9,249.9z"/>
	<g>
		<circle class="st4" cx="244.3" cy="199.7" r="4.5"/>
		<circle class="st4" cx="211.7" cy="199.7" r="4.5"/>
	</g>
	<path class="st1" d="M99.8,114.2h41.8c10.1,0,18.3,8.2,18.3,18.3v20.7c0,11.7-9.5,21.1-21.1,21.1l0,0h-36.2
		c-11.7,0-21.1-9.5-21.1-21.1l0,0v-20.7C81.5,122.4,89.7,114.2,99.8,114.2z"/>
	<g>
		<g>
			<path class="st5" d="M98.6,244.4c-0.1,0-0.2,0-0.3-0.1c-3.7-3.5-6.1-8-7-13c0-0.2,0.1-0.5,0.4-0.5c0.2,0,0.5,0.1,0.5,0.4v0.1
				c0.8,4.8,3.2,9.1,6.7,12.5c0.2,0.2,0.2,0.5,0,0.6C98.8,244.3,98.7,244.4,98.6,244.4L98.6,244.4z"/>
			<path class="st5" d="M97.5,235.3c-1,1.2-2.3,2.1-3.8,2.5c-0.3-1.5-0.1-3.1,0.6-4.6c0.6-0.9,1.8-1.1,2.7-0.5
				C97.7,233.3,98,234.4,97.5,235.3L97.5,235.3z"/>
			<path class="st5" d="M99.8,239.1c-1.1,1.1-2.5,1.9-4,2.3c-0.2-1.6,0.1-3.1,0.9-4.5c0.6-0.9,1.8-1.1,2.7-0.4
				S100.5,238.2,99.8,239.1L99.8,239.1z"/>
			<path class="st5" d="M91.2,236c1.4,0.6,2.7,1.6,3.6,2.9c-1.4,0.8-2.9,1.1-4.5,0.8c-1-0.3-1.6-1.3-1.4-2.3
				C89.1,236.4,90.1,235.7,91.2,236L91.2,236L91.2,236z"/>
		</g>
		<g>
			<path class="st6" d="M86.2,229.2c0,0,0,0.1,0,0.1c0,1.5,1.2,2.8,2.8,2.8c0.7,0,1.4-0.3,2-0.8c1.1,0.9,2.7,0.8,3.7-0.3
				c0.8-0.9,0.8-2.2,0.1-3.2c1.6-0.5,2.5-2.2,2-3.9s-2.2-2.5-3.9-2c-0.1,0-0.2,0.1-0.2,0.1c-0.5-1.4-2.1-2.2-3.6-1.7
				c-1.3,0.5-2,1.8-1.8,3.2c-1.5-0.4-3.1,0.5-3.5,2s0.5,3.1,2,3.5C85.9,229.2,86.1,229.2,86.2,229.2L86.2,229.2z"/>
			<circle class="st7" cx="90.6" cy="226.4" r="1.1"/>
		</g>
	</g>
	<g>
		<path class="st2" d="M81.5,132.5c0-10.1,8.2-18.3,18.3-18.3h41.8c10.1,0,18.3,8.2,18.3,18.3L81.5,132.5z"/>
		<path class="st2" d="M148.6,128.2c-5,0-5,0.6-7,4.5c0,3.8,4.1,6.9,9.1,6.9s9.1-3.1,9.1-6.9v-0.3L148.6,128.2z"/>
		<path class="st2" d="M106.1,132.6c0,3.8,5.3,6.9,11.9,6.9s12-3.1,12-6.9c-6.6-3.2-8.2-4.5-14.8-4.5S108.7,128.8,106.1,132.6z"/>
		<path class="st2" d="M91.6,128.2c7.3,0,9.1,1.3,16.4,4.5c0,3.8-5.9,6.9-13.3,6.9s-13.3-3.1-13.3-6.9v-0.1L91.6,128.2z"/>
		<path class="st2" d="M124.8,132.6c0,3.8,4.9,6.9,11,6.9s11-3.1,11-6.9c-6.1-3.2-7.5-4.5-13.6-4.5S127.1,128.8,124.8,132.6z"/>
	</g>
	<g>
		<circle class="st4" cx="145.3" cy="161.6" r="4.8"/>
		<circle class="st4" cx="107.3" cy="161.6" r="4.8"/>
	</g>
	<g>
		<g>
			<path class="st2" d="M228.5,149.9c16.9,0,31.8,15.2,31.8,32.5C260.2,182.4,228.5,182.2,228.5,149.9z"/>
			<path class="st2" d="M228.5,149.9c-16.9,0-31.8,15.2-31.8,32.5C196.7,182.4,228.5,182.2,228.5,149.9z"/>
		</g>
		<polygon class="st2" points="230.5,158.7 226.4,158.7 226.4,151.3 228.5,149.9 230.5,151.3 		"/>
	</g>
	
		<linearGradient id="SVGID_1_" gradientUnits="userSpaceOnUse" x1="121.5" y1="91.9" x2="121.5" y2="39.47" gradientTransform="matrix(1 0 0 -1 0 276)">
		<stop  offset="0" style="stop-color:#E2E4E0"/>
		<stop  offset="0.27" style="stop-color:#EFF0EE"/>
		<stop  offset="0.65" style="stop-color:#FBFBFB"/>
		<stop  offset="1" style="stop-color:#FFFFFF"/>
	</linearGradient>
	<path class="st8" d="M119,234l-17-50h39l-17,50C122.8,237.3,120.1,237.3,119,234z"/>
	<g>
		<circle class="st9" cx="121.4" cy="206.7" r="1.3"/>
		<circle class="st9" cx="121.4" cy="219.3" r="1.3"/>
	</g>
	<g>
		<g>
			<path class="st5" d="M248,166.3h0.1c3.6,0.2,7.2-0.8,10.2-2.7c0.1-0.1,0.1-0.3,0-0.4c-0.1-0.1-0.2-0.1-0.3-0.1
				c-2.9,1.9-6.4,2.8-9.9,2.6c-0.1,0-0.3,0.1-0.3,0.3C247.9,166.1,247.9,166.2,248,166.3L248,166.3z"/>
			<path class="st5" d="M259.6,160.7c-0.9,0.8-1.5,1.8-1.8,2.9c1.2,0.2,2.4,0,3.4-0.6c0.7-0.4,0.8-1.3,0.4-2
				C261.2,160.4,260.3,160.3,259.6,160.7L259.6,160.7z"/>
			<path class="st5" d="M254.6,161.5c-0.1,1.2,0.2,2.3,0.8,3.4c1-0.7,1.7-1.7,2-2.8c0.2-0.8-0.4-1.5-1.1-1.7
				C255.5,160.2,254.8,160.7,254.6,161.5L254.6,161.5L254.6,161.5z"/>
			<path class="st5" d="M258.9,164.5c-1.2-0.2-2.3-0.1-3.4,0.4c0.6,1,1.5,1.8,2.5,2.3c0.8,0.2,1.6-0.2,1.8-1
				C259.9,165.5,259.6,164.7,258.9,164.5z"/>
			<path class="st5" d="M251.7,162.5c-0.3,1.1-0.2,2.3,0.2,3.4c1.1-0.5,1.9-1.3,2.5-2.4c0.3-0.8-0.1-1.6-0.9-1.8
				C252.7,161.5,252,161.8,251.7,162.5z"/>
			<path class="st5" d="M255.3,166.2c-1.1-0.4-2.3-0.5-3.4-0.2c0.4,1.1,1.1,2.1,2.1,2.8c0.7,0.4,1.6,0.2,2-0.5
				C256.3,167.5,256,166.7,255.3,166.2C255.3,166.2,255.3,166.2,255.3,166.2z"/>
		</g>
		<g>
			<path class="st5" d="M223.9,165.8c0,0-0.1,0-0.1,0c-3.9-2.3-6.9-5.8-8.7-9.9c0-0.2,0.1-0.4,0.3-0.4c0.1,0,0.3,0,0.4,0.2
				c1.8,4,4.7,7.3,8.4,9.6c0.2,0.1,0.2,0.3,0.1,0.5C224.1,165.8,224,165.9,223.9,165.8L223.9,165.8z"/>
			<path class="st5" d="M215.7,151.9c0.4,1.4,0.3,2.9-0.2,4.3c-1.3-0.6-2.4-1.6-3.1-2.9c-0.3-0.9,0.1-2,1.1-2.3
				C214.3,150.7,215.3,151.1,215.7,151.9z"/>
			<path class="st5" d="M220.4,156.2c-0.8,1.3-1.9,2.3-3.2,2.9c-0.5-1.4-0.6-2.9-0.1-4.3c0.5-0.9,1.5-1.2,2.4-0.8
				C220.3,154.4,220.7,155.4,220.4,156.2z"/>
			<path class="st5" d="M213.9,156.4c1.3,0.6,2.5,1.6,3.3,2.8c-1.3,0.7-2.8,0.9-4.2,0.6c-1-0.3-1.5-1.3-1.2-2.2
				C212,156.6,213,156.1,213.9,156.4L213.9,156.4z"/>
		</g>
		<path class="st5" d="M210.9,171.2c1-1.4,1.7-3,1.8-4.8c-1.7,0.1-3.4,0.7-4.8,1.8c-0.8,0.9-0.6,2.2,0.3,3
			C208.9,171.8,210.1,171.8,210.9,171.2L210.9,171.2z"/>
		<path class="st5" d="M199.7,168c1.8-0.6,3.4-1.7,4.5-3.3c-1.8-0.8-3.8-1.1-5.7-0.8c-1.1,0.3-1.8,1.5-1.4,2.7
			C197.4,167.7,198.5,168.3,199.7,168z"/>
	</g>
	<g>
		<path class="st10" d="M129.9,163.1c-1.6,0.9-3.3,1.4-5.2,1.4c-2.3,0-4.6-0.8-6.4-2.2c-0.4-0.3-0.9-0.2-1.1,0.2
			c-0.3,0.4-0.2,0.9,0.2,1.1c2.1,1.6,4.7,2.5,7.4,2.5c0.7,0,1.3-0.1,2-0.2c1.4-0.2,2.8-0.8,4.1-1.5c0.4-0.2,0.5-0.7,0.2-1.1
			c0,0,0,0,0,0C130.8,163,130.3,162.9,129.9,163.1z"/>
		<path class="st10" d="M231.1,199.5c-0.4-0.1-0.8,0.1-0.9,0.5c-0.4,0.9-1.2,1.4-2.2,1.4c-0.9,0-1.8-0.5-2.2-1.4
			c-0.1-0.4-0.5-0.7-0.8-0.6c-0.4,0.1-0.7,0.4-0.6,0.8c0.2,1.4,2,2.6,3.6,2.6c1.6,0,3.1-1,3.6-2.5
			C231.7,200,231.5,199.6,231.1,199.5C231.1,199.5,231.1,199.5,231.1,199.5z"/>
	</g>
	<g>
		<g>
			<g>
				<path class="st0" d="M241.8,164.8c0,0.1,0,0.1,0,0.2c0,1.8,1.5,3.3,3.3,3.3c0.9,0,1.7-0.3,2.3-1c1.3,1.1,3.2,0.9,4.3-0.3
					c0.9-1.1,1-2.6,0.2-3.8c1.9-0.5,3.1-2.5,2.5-4.5s-2.5-3.1-4.5-2.5c-0.2,0-0.3,0.1-0.5,0.2c-0.6-1.7-2.5-2.7-4.2-2.1
					c-1.6,0.5-2.5,2.2-2.2,3.8c-1.8-0.5-3.7,0.6-4.2,2.4s0.6,3.7,2.4,4.2C241.5,164.7,241.6,164.7,241.8,164.8L241.8,164.8z"/>
				<circle class="st11" cx="246.9" cy="161.4" r="1.4"/>
			</g>
			<g>
				<path class="st0" d="M232.1,168.1c0,0,0,0.1,0,0.1c0,1.4,1.2,2.6,2.6,2.6c0.7,0,1.4-0.3,1.8-0.8c1,0.9,2.6,0.7,3.4-0.3
					c0.7-0.8,0.8-2.1,0.1-3c1.5-0.4,2.5-2,2-3.5c-0.4-1.5-2-2.5-3.5-2c-0.1,0-0.3,0.1-0.4,0.1c-0.5-1.3-2.1-2-3.4-1.5
					c-1.1,0.5-1.8,1.6-1.6,2.8c-1.4-0.4-2.9,0.4-3.4,1.8c-0.4,1.4,0.4,2.9,1.8,3.4C231.8,168,232,168,232.1,168.1L232.1,168.1z"/>
				<circle class="st11" cx="236.2" cy="165.4" r="1"/>
			</g>
			<g>
				<path class="st0" d="M202.6,164.7c0,0.1,0,0.1,0,0.2c0,1.7,1.4,3,3,3c0.8,0,1.5-0.3,2.1-0.9c1.2,1,2.9,0.9,3.9-0.3
					c0.8-1,0.9-2.4,0.1-3.4c1.8-0.5,2.8-2.3,2.3-4.1c-0.5-1.8-2.3-2.8-4.1-2.3c-0.1,0-0.3,0.1-0.4,0.2c-0.6-1.6-2.3-2.3-3.9-1.8
					c-1.4,0.5-2.2,1.9-1.9,3.4c-1.7-0.4-3.3,0.6-3.7,2.3c-0.4,1.7,0.6,3.3,2.3,3.7C202.5,164.7,202.5,164.7,202.6,164.7L202.6,164.7
					z"/>
				<circle class="st11" cx="207.3" cy="161.7" r="1.2"/>
			</g>
			<path class="st0" d="M221.8,168.3c0,0.1,0,0.1,0,0.2c0.4,1.7,2.2,2.7,3.9,2.3c0.8-0.2,1.5-0.7,1.9-1.4c1.5,0.6,3.3-0.2,3.9-1.7
				c0.4-1.1,0.2-2.4-0.7-3.2c1.6-1,2.1-3.2,1.1-4.8c-1-1.6-3.2-2.1-4.8-1.1c-0.1,0-0.1,0.1-0.2,0.1c-0.9-1.5-2.9-1.9-4.4-1
				c-1.4,0.9-1.9,2.7-1.1,4.1c-1.8,0-3.3,1.4-3.4,3.2c0,1.8,1.4,3.3,3.2,3.4C221.4,168.3,221.6,168.3,221.8,168.3L221.8,168.3z"/>
			<g>
				<path class="st0" d="M212,167.3v0.1c-0.4,1.2,0.3,2.5,1.5,2.9c0.6,0.2,1.2,0.1,1.7-0.1c0.6,1,1.9,1.3,3,0.7
					c0.9-0.5,1.2-1.6,0.9-2.5c1.4,0,2.6-1.1,2.6-2.5c0-1.4-1.1-2.6-2.5-2.6c-0.1,0-0.2,0-0.3,0c-0.1-1.3-1.1-2.3-2.4-2.2
					c-1.1,0.1-2.1,0.9-2.2,2c-1.1-0.7-2.6-0.4-3.3,0.8c-0.7,1.1-0.4,2.6,0.8,3.3C211.9,167.3,212,167.3,212,167.3L212,167.3z"/>
				
					<ellipse transform="matrix(0.3047 -0.9524 0.9524 0.3047 -8.0077 321.4489)" class="st11" cx="216.2" cy="166.2" rx="1" ry="1"/>
			</g>
		</g>
		<circle class="st11" cx="225.9" cy="164" r="1.4"/>
	</g>
	<g>
		<path class="st12" d="M110,198.8v-8.2c0-1.5,1.2-2.8,2.8-2.8c0.5,0,1,0.1,1.4,0.4l7.2,4.1c1.3,0.8,1.8,2.5,1,3.8
			c-0.2,0.4-0.6,0.8-1,1l-7.2,4.1c-1.3,0.8-3,0.3-3.8-1C110.1,199.7,110,199.2,110,198.8z"/>
		<path class="st12" d="M133.5,198.8v-8.2c0-1.5-1.2-2.8-2.8-2.8c-0.5,0-1,0.1-1.4,0.4l-7.2,4.1c-1.3,0.8-1.8,2.5-1,3.8
			c0.2,0.4,0.6,0.8,1,1l7.2,4.1c1.3,0.8,3,0.3,3.8-1C133.4,199.7,133.5,199.2,133.5,198.8z"/>
	</g>
	<g>
		<path class="st0" d="M140.9,183.9h-19.5l8.9,7.3c1.4,1.1,3.5,1,4.7-0.4L140.9,183.9z"/>
		<path class="st0" d="M102,183.9h19.5l-8.9,7.3c-1.4,1.1-3.5,1-4.7-0.4L102,183.9z"/>
	</g>
	<path class="st0" d="M262,286.3c-2.2-0.4-3.5-1.9-4.3-4.1c-10.6-30.6-19.6-46.4-19.7-46.6c-1.9-2.7-1.2-6.5,1.5-8.4
		s6.5-1.2,8.4,1.5l0,0c0.4,0.5,10.2,0.3,20.8,49.8c0.7,3.2-0.8,6.5-3.9,7.5C263.9,286.4,262.9,286.5,262,286.3z"/>
	<path class="st0" d="M241.2,223.7c8.3,4.5,20.5,14.8,6.9,66.4h-39.1c-13.8-50.6-1.7-62.2,6.4-66.4
		C225.1,237.1,238.8,228,241.2,223.7z"/>
	<g>
		<g>
			<g>
				<path class="st5" d="M216,274.5c-0.1,0-0.1,0-0.2,0c-5.1-1.1-9.8-3.9-13.3-7.8c-0.1-0.2-0.1-0.4,0.1-0.6
					c0.2-0.1,0.4-0.1,0.6,0.1c3.4,3.8,7.9,6.4,12.9,7.5c0.2,0,0.4,0.2,0.3,0.4C216.3,274.3,216.2,274.5,216,274.5z"/>
				<path class="st5" d="M201.8,262.1c0.9,1.5,1.4,3.1,1.4,4.9c-1.7-0.2-3.3-0.9-4.6-2.1c-0.7-0.9-0.5-2.3,0.4-3
					C199.9,261.2,201.1,261.3,201.8,262.1L201.8,262.1z"/>
				<path class="st5" d="M208.6,265.1c-0.4,1.7-1.2,3.2-2.4,4.4c-1.1-1.3-1.7-3-1.8-4.7c0-1.2,1-2.1,2.1-2.1c1.2,0,2.1,1,2.1,2.1
					C208.6,264.9,208.6,265,208.6,265.1z"/>
				<path class="st5" d="M201.4,267.7c1.7,0.2,3.3,0.8,4.7,1.9c-1.2,1.2-2.8,2-4.5,2.3c-1.2,0.1-2.2-0.7-2.3-1.9
					c-0.1-1.2,0.7-2.2,1.9-2.3C201.3,267.7,201.4,267.7,201.4,267.7z"/>
			</g>
			<path class="st5" d="M243.5,255.4c-0.3,1.5-2.4,4.5-4,5.5c-1.4-1.9-2.1-4.2-2-6.5c0.4-1.6,2.1-2.6,3.8-2.2
				C242.7,252.6,243.6,253.9,243.5,255.4L243.5,255.4z"/>
			<path class="st5" d="M256.9,267.2c-1.6,1.1-6.2,1.7-8.4,1.2c0.7-2.8,2.3-5.3,4.5-7.1c1.6-1.1,3.8-0.6,4.9,1
				C259,264,258.6,266.2,256.9,267.2L256.9,267.2z"/>
			<path class="st5" d="M256.7,279.5c-1.9,0.3-6.3-1-8.1-2.4c1.8-2.3,4.3-3.9,7.1-4.6c1.9-0.3,3.7,1.1,4,3
				C259.9,277.4,258.6,279.2,256.7,279.5L256.7,279.5z"/>
			<path class="st5" d="M214,256c1.1,1.9,1.7,4,1.6,6.1c-2.2-0.3-4.2-1.3-5.7-2.8c-0.9-1.1-0.8-2.8,0.4-3.7
				C211.4,254.7,213.1,254.9,214,256z"/>
			<path class="st5" d="M201.5,273.2c1.8,0.1,5.5,2.1,6.9,3.7c-2.1,1.7-4.6,2.7-7.3,2.8c-1.8-0.2-3.1-1.8-2.9-3.6
				C198.4,274.4,199.8,273.1,201.5,273.2z"/>
			<path class="st5" d="M248.1,275.5c0,10.1-37.5,10.1-37.5,0c0.3-10.4,9-18.5,19.4-18.2C239.8,257.6,247.8,265.6,248.1,275.5
				L248.1,275.5z"/>
		</g>
		<g>
			<g>
				<path class="st13" d="M240,266c0,0.1,0,0.1,0,0.2c0,1.9,1.5,3.3,3.4,3.3c0.9,0,1.7-0.3,2.3-1c1.3,1.1,3.3,1,4.4-0.4
					c0.9-1.1,1-2.7,0.2-3.8c1.9-0.7,2.9-2.8,2.3-4.7c-0.7-1.9-2.8-2.9-4.7-2.3l0,0c-0.6-1.7-2.5-2.7-4.3-2c-1.6,0.6-2.5,2.2-2.2,3.8
					c-1.9-0.4-3.7,0.9-4.1,2.7C236.9,263.8,238.1,265.6,240,266z"/>
				<circle class="st14" cx="245.2" cy="262.6" r="1.3"/>
			</g>
			<g>
				<path class="st15" d="M208.2,268.3c0,0,0,0.1,0,0.1c0,1.4,1.1,2.5,2.5,2.5c0.7,0,1.3-0.3,1.8-0.7c1,0.8,2.5,0.7,3.3-0.3
					c0.7-0.8,0.7-2,0.1-2.8c1.5-0.4,2.4-1.9,2-3.4s-1.9-2.4-3.4-2c-0.1,0-0.3,0.1-0.4,0.2c-0.4-1.3-1.9-2-3.2-1.6
					c-1.2,0.4-1.9,1.7-1.6,2.9c-1.4-0.3-2.8,0.5-3.1,1.9c-0.3,1.4,0.5,2.8,1.9,3.1C208.1,268.3,208.1,268.3,208.2,268.3L208.2,268.3
					z"/>
				<circle class="st16" cx="212.1" cy="265.8" r="1.1"/>
			</g>
			<g>
				<path class="st13" d="M219.2,276.7c0,0.1,0,0.1,0,0.2c0.5,2,2.5,3.2,4.5,2.7c1-0.2,1.8-0.9,2.3-1.7c1.7,0.8,3.8,0.1,4.6-1.6
					c0.7-1.4,0.3-3.1-0.9-4.1c1.9-1.2,2.5-3.7,1.4-5.7s-3.7-2.5-5.7-1.4c-0.1,0.1-0.2,0.1-0.3,0.2c-1.1-1.7-3.4-2.2-5.2-1.1
					c-1.6,1-2.1,3.1-1.3,4.8c-2.1-0.1-3.9,1.6-4,3.8s1.6,3.9,3.8,4C218.8,276.8,219,276.7,219.2,276.7L219.2,276.7z"/>
				<circle class="st14" cx="223.9" cy="271.5" r="1"/>
			</g>
			<g>
				<path class="st15" d="M252.2,268.3l-0.1-0.1c-1-1.3-2.9-1.5-4.2-0.5c-0.6,0.5-1,1.2-1.1,2c-1.5-0.1-2.8,1.1-2.9,2.7
					c0,1.3,0.8,2.4,2,2.8c-1.1,1.5-0.8,3.6,0.7,4.6c1.5,1.1,3.6,0.8,4.6-0.7c0.1-0.1,0.2-0.3,0.3-0.4c1.4,0.9,3.2,0.5,4.2-0.9
					c0.8-1.3,0.6-3-0.6-4c1.6-0.7,2.3-2.5,1.6-4.1s-2.5-2.3-4.1-1.6C252.4,268.2,252.3,268.2,252.2,268.3L252.2,268.3z"/>
				
					<ellipse transform="matrix(0.7828 -0.6222 0.6222 0.7828 -115.8513 215.2415)" class="st16" cx="250.4" cy="273.6" rx="0.7" ry="0.7"/>
			</g>
			<g>
				<path class="st13" d="M205.4,278.5c0,0,0,0.1,0,0.2c0,1.7,1.3,3,3,3c0.8,0,1.6-0.3,2.1-0.9c1.2,1,2.9,0.8,3.9-0.3
					c0.8-1,0.9-2.4,0.1-3.4c1.8-0.5,2.8-2.3,2.3-4.1c-0.5-1.8-2.3-2.8-4.1-2.3c-0.2,0-0.3,0.1-0.4,0.2c-0.5-1.6-2.2-2.5-3.8-2
					c-1.5,0.5-2.4,2-2,3.6c-1.7-0.4-3.4,0.5-3.8,2.2c-0.4,1.7,0.5,3.4,2.2,3.8C205.1,278.5,205.3,278.5,205.4,278.5L205.4,278.5z"/>
				<circle class="st14" cx="210.1" cy="275.5" r="1.2"/>
			</g>
			<g>
				<path class="st15" d="M215.7,262.2c0,0,0,0.1,0,0.2c0,1.7,1.3,3,3,3c0.8,0,1.6-0.3,2.1-0.9c1.2,1,2.9,0.8,3.9-0.3
					c0.8-1,0.9-2.4,0.1-3.4c1.8-0.5,2.8-2.3,2.3-4.1c-0.5-1.8-2.3-2.8-4.1-2.3c-0.2,0-0.3,0.1-0.4,0.2c-0.5-1.6-2.2-2.5-3.8-2
					c-1.5,0.5-2.4,2-2,3.6c-1.7-0.4-3.4,0.5-3.8,2.2c-0.4,1.7,0.5,3.4,2.2,3.8C215.4,262.2,215.6,262.2,215.7,262.2L215.7,262.2z"/>
				<circle class="st16" cx="220.4" cy="259.2" r="0.8"/>
			</g>
			<g>
				<path class="st13" d="M228.4,256.4h-0.1c-1.6,0.6-2.3,2.3-1.8,3.9c0.3,0.7,0.8,1.3,1.6,1.7c-0.5,1.5,0.2,3,1.7,3.6
					c1.2,0.4,2.5,0,3.3-1.1c1.1,1.5,3.2,1.8,4.6,0.7c1.5-1.1,1.8-3.2,0.7-4.6c-0.1-0.1-0.2-0.2-0.3-0.3c1.3-1,1.5-2.9,0.5-4.2
					c-1-1.2-2.7-1.5-4-0.6c-0.1-1.7-1.6-3-3.4-2.8c-1.7,0.1-3,1.6-2.8,3.4C228.4,256,228.4,256.2,228.4,256.4L228.4,256.4z"/>
				
					<ellipse transform="matrix(0.9371 -0.3489 0.3489 0.9371 -76.5894 97.8068)" class="st14" cx="233.2" cy="261.5" rx="1.2" ry="1.2"/>
			</g>
			<g>
				<path class="st15" d="M232.2,275.5c0,0.1,0,0.1,0,0.2c0,2,1.6,3.5,3.6,3.5c0.9,0,1.8-0.4,2.4-1c1.4,1.2,3.5,1,4.6-0.4
					c1-1.1,1-2.8,0.2-4c2.1-0.6,3.2-2.8,2.6-4.9c-0.6-2.1-2.8-3.2-4.9-2.6c-0.1,0-0.2,0.1-0.3,0.1c-0.6-1.8-2.6-2.8-4.5-2.2
					c-1.7,0.6-2.7,2.3-2.3,4.1c-2-0.5-4,0.7-4.5,2.6c-0.5,2,0.7,4,2.6,4.5C231.8,275.4,232,275.5,232.2,275.5L232.2,275.5z"/>
				<circle class="st16" cx="237.7" cy="271.9" r="1.2"/>
			</g>
		</g>
	</g>
	<g>
		
			<ellipse transform="matrix(0.9977 -6.801529e-02 6.801529e-02 0.9977 -15.1402 15.4648)" class="st0" cx="219.5" cy="230.1" rx="3.9" ry="3.9"/>
		
			<ellipse transform="matrix(0.9977 -6.801529e-02 6.801529e-02 0.9977 -15.3164 15.8662)" class="st0" cx="225.3" cy="232.9" rx="3.9" ry="3.9"/>
		
			<ellipse transform="matrix(0.9977 -6.801529e-02 6.801529e-02 0.9977 -15.2715 16.3056)" class="st0" cx="231.8" cy="232.4" rx="3.9" ry="3.9"/>
		
			<ellipse transform="matrix(0.9977 -6.801529e-02 6.801529e-02 0.9977 -15.1019 16.72)" class="st0" cx="238" cy="230.1" rx="3.9" ry="3.9"/>
	</g>
	<g>
		<path class="st2" d="M194.6,222.4c1.9,5.6,1.3,12.3,5.1,15.1c1.9,0.9,4.1,1.3,6.2,1.1c13.1-0.7,17.6-15.9,8.3-26.2L194.6,222.4z"
			/>
		<path class="st2" d="M262.3,222.4c-2.1,6-1.3,13.3-6.3,15.6c-1.6,0.6-3.4,0.8-5.1,0.6c-13.1-0.7-17.6-15.9-8.3-26.2L262.3,222.4z"
			/>
	</g>
	<g>
		<path class="st17" d="M162.2,268.1c0.5,4.9,3.8,8.6,8.7,8.1c2.6-0.3,1.9-4.2,1.4-9.1s-0.9-8.9-3.2-8.7
			C164.2,258.9,161.7,263.2,162.2,268.1z"/>
		<g>
			<path class="st17" d="M169.3,262.9l4.9-0.5c1.3-0.1,2.3,0.9,2.4,2.2c0.1,1.2-0.8,2.2-1.9,2.4l-4.9,0.5L169.3,262.9z"/>
			<path class="st17" d="M169.8,267.3l4.9-0.5c1.3-0.1,2.3,0.9,2.4,2.2c0.1,1.2-0.8,2.2-1.9,2.4l-4.9,0.5L169.8,267.3z"/>
			<path class="st17" d="M170.2,271.7l4.9-0.5c1.3-0.1,2.3,0.9,2.4,2.2c0.1,1.2-0.8,2.2-1.9,2.4l-4.9,0.5L170.2,271.7z"/>
			<path class="st17" d="M168.9,258.5l4.9-0.5c1.3-0.1,2.3,0.9,2.4,2.2c0.1,1.2-0.8,2.2-1.9,2.4l-4.9,0.5L168.9,258.5z"/>
		</g>
	</g>
</g>
<g id="eyes">
	<g>
		<path class="st0" d="M134.5,144.8c-3.2,0-6,2-7,5c-1.4-3.9-5.7-5.9-9.5-4.5s-5.9,5.7-4.5,9.5c1.4,3.9,5.7,5.9,9.5,4.5
			c2.1-0.8,3.8-2.4,4.5-4.5c1.4,3.9,5.7,5.9,9.6,4.5c3.9-1.4,5.9-5.7,4.5-9.6C140.5,146.7,137.6,144.8,134.5,144.8z"/>
		<circle class="st10" cx="137.2" cy="154" r="4.1"/>
		<circle class="st10" cx="123.1" cy="154" r="4.1"/>
	</g>
	<g>
		<g>
			<path class="st10" d="M240.3,189.4c0.1,0,0.2,0,0.3-0.1l1.8-0.8c0.4-0.1,0.6-0.5,0.4-0.9c-0.1-0.4-0.5-0.6-0.9-0.4
				c0,0-0.1,0-0.1,0l-1.8,0.8c-0.4,0.2-0.5,0.6-0.4,0.9C239.7,189.3,240,189.4,240.3,189.4z"/>
			<path class="st10" d="M215.2,189.4c0.4,0,0.7-0.3,0.7-0.7c0-0.3-0.2-0.5-0.4-0.6l-1.8-0.8c-0.3-0.2-0.8,0-0.9,0.3
				c-0.2,0.3,0,0.8,0.3,0.9c0,0,0.1,0,0.1,0l1.8,0.8C215,189.4,215.1,189.4,215.2,189.4z"/>
		</g>
		<g>
			<circle class="st0" cx="234.2" cy="191.5" r="6.7"/>
			<circle class="st0" cx="221" cy="191.5" r="6.7"/>
		</g>
		<circle class="st10" cx="219.1" cy="189.2" r="3.7"/>
		<circle class="st10" cx="232.2" cy="189.2" r="3.7"/>
	</g>
</g>
</svg>
