<svg xmlns="http://www.w3.org/2000/svg" viewBox="0 0 68 68">
  <defs>
    <style>
      .cls-1 {
        fill: #b1dcd8;
      }

      .cls-2 {
        fill: #fff;
      }

      .cls-3 {
        fill: #ffedcc;
      }

      .cls-4 {
        fill: #6e554b;
      }

      .cls-5 {
        fill: #ffb0a5;
      }

      .cls-6 {
        fill: #5b4946;
      }

      .cls-7 {
        fill: #65bc85;
      }

      .cls-8 {
        fill: #fff9a9;
      }

      .cls-9 {
        fill: #f9d768;
      }

      .cls-10 {
        fill: #ffe576;
      }

      .cls-11 {
        fill: #f9d05d;
      }

      .cls-12 {
        fill: #ffdb69;
      }

      .cls-13 {
        fill: #f4bc58;
      }
    </style>
  </defs>
  <title>invitation_img</title>
  <g id="character">
    <g>
      <circle class="cls-1" cx="34" cy="34" r="34"/>
      <path class="cls-2" d="M34,68a33.84,33.84,0,0,0,16.57-4.31C46.65,51,43.51,51.06,43.36,50.85a2.92,2.92,0,0,0-1-.89,12.05,12.05,0,0,0-2.29-1.57c-1.16,2.09-7.81,6.54-12.58,0A10,10,0,0,0,25.22,50a2.93,2.93,0,0,0-.93.85c-.15.21-3.27.18-7.15,12.67A33.83,33.83,0,0,0,34,68Z"/>
      <g>
        <path class="cls-3" d="M33.79,40.94c2.66-.23,8.14-.45,7,1.79a6.93,6.93,0,0,0,0,5.76c-.76,2.25-3.44,3.31-5.55,3.8v.42s-.55,0-1.38-.15c-.82.13-1.38.15-1.38.15v-.42c-2.11-.49-4.78-1.55-5.55-3.8a6.93,6.93,0,0,0,0-5.76C25.65,40.49,31.13,40.71,33.79,40.94Z"/>
        <g>
          <path class="cls-4" d="M47.62,25.52l1.55,2.28a31.3,31.3,0,0,1-1.27,10.62C46.6,42.78,49.2,45,50.27,47.76c1.43,3.65-.45,8.16-5.53,7.89-6.35-.34-8.56-7.72-4-12.75C45.53,37.51,47.62,25.52,47.62,25.52Z"/>
          <path class="cls-4" d="M20,25.5l-1.55,2.28A31.3,31.3,0,0,0,19.69,38.4C21,42.76,18.38,45,17.31,47.74c-1.43,3.65.45,8.16,5.53,7.89,6.35-.34,8.56-7.72,4-12.75C22,37.49,20,25.5,20,25.5Z"/>
        </g>
        <path class="cls-3" d="M40.52,43c4.87-2.86,8.73-9.16,8.73-14.71,0-8.42-7.25-15.83-15.46-15.83h0c-8.21,0-15.46,7.41-15.46,15.83,0,5.55,3.76,11.81,8.73,14.71Z"/>
        <g>
          <circle class="cls-5" cx="41.73" cy="36.1" r="2.17"/>
          <circle class="cls-5" cx="25.85" cy="36.1" r="2.17"/>
        </g>
        <g>
          <path class="cls-4" d="M33.79,12.45c8.21,0,15.46,7.41,15.46,15.83C49.25,28.28,33.79,28.17,33.79,12.45Z"/>
          <path class="cls-4" d="M33.79,12.45c-8.21,0-15.46,7.41-15.46,15.83,0,0,11.36-.08,14.6-10C36.78,18.21,35.29,14,33.79,12.45Z"/>
        </g>
        <g>
          <circle class="cls-2" cx="29.54" cy="51.48" r="1.92" transform="translate(-3.44 2.13) rotate(-3.9)"/>
          <circle class="cls-2" cx="32.37" cy="52.83" r="1.92" transform="translate(-3.52 2.33) rotate(-3.9)"/>
          <circle class="cls-2" cx="35.52" cy="52.62" r="1.92" transform="translate(-3.5 2.54) rotate(-3.9)"/>
          <circle class="cls-2" cx="38.52" cy="51.51" r="1.92" transform="translate(-3.42 2.74) rotate(-3.9)"/>
        </g>
        <g>
          <path class="cls-4" d="M17.31,47.75c.93,2.71.65,6,2.49,7.36a6.15,6.15,0,0,0,3,.54c6.38-.34,8.55-7.71,4-12.74Z"/>
          <path class="cls-4" d="M50.27,47.75c-1,2.94-.65,6.46-3.05,7.6a6,6,0,0,1-2.47.29c-6.38-.34-8.55-7.71-4-12.74Z"/>
        </g>
        <g>
          <g>
            <path class="cls-6" d="M30,34.92a3.11,3.11,0,0,1-3-2.36H26.4a.34.34,0,0,1-.14-.65l.89-.39a.34.34,0,0,1,.48.31,2.43,2.43,0,0,0,4.85,0,.34.34,0,0,1,.68,0A3.1,3.1,0,0,1,30,34.92Z"/>
            <path class="cls-6" d="M37.54,34.92a3.1,3.1,0,0,1-3.11-3.08.34.34,0,0,1,.68,0,2.43,2.43,0,0,0,4.85,0,.34.34,0,0,1,.48-.31l.89.39a.34.34,0,0,1-.14.65h-.63A3.11,3.11,0,0,1,37.54,34.92Z"/>
          </g>
          <path class="cls-6" d="M33.79,37.75A1.83,1.83,0,0,1,32,36.53a.34.34,0,0,1,.66-.16,1.17,1.17,0,0,0,1.09.71,1.19,1.19,0,0,0,1.08-.68.34.34,0,0,1,.67.11A1.82,1.82,0,0,1,33.79,37.75Z"/>
        </g>
      </g>
      <g>
        <g>
          <g>
            <path class="cls-7" d="M43.33,20.66l.05,0a8.66,8.66,0,0,0,5.1-1.36.13.13,0,0,0-.15-.22,8.55,8.55,0,0,1-4.93,1.31.13.13,0,0,0-.07.25Z"/>
            <path class="cls-7" d="M49.15,17.86a3.06,3.06,0,0,0-.9,1.47A2.73,2.73,0,0,0,50,19a.72.72,0,1,0-.8-1.19Z"/>
            <path class="cls-7" d="M46.65,18.24a3.06,3.06,0,0,0,.41,1.67,2.73,2.73,0,0,0,1-1.4.72.72,0,0,0-1.41-.27Z"/>
            <path class="cls-7" d="M48.77,19.74a3.06,3.06,0,0,0-1.71.2,2.73,2.73,0,0,0,1.27,1.17.72.72,0,1,0,.44-1.37Z"/>
            <path class="cls-7" d="M45.17,18.73a3.06,3.06,0,0,0,.08,1.72,2.73,2.73,0,0,0,1.25-1.18.72.72,0,1,0-1.34-.54Z"/>
            <path class="cls-7" d="M47,20.6a3.06,3.06,0,0,0-1.72-.12,2.73,2.73,0,0,0,1,1.38A.72.72,0,1,0,47,20.6Z"/>
          </g>
          <g>
            <path class="cls-7" d="M31.29,20.41l-.07,0a10.81,10.81,0,0,1-4.34-5,.17.17,0,0,1,.31-.12,10.68,10.68,0,0,0,4.2,4.78.17.17,0,0,1-.1.31Z"/>
            <path class="cls-7" d="M27.2,13.46a3.82,3.82,0,0,1-.09,2.15,3.4,3.4,0,0,1-1.57-1.47.9.9,0,1,1,1.66-.68Z"/>
            <path class="cls-7" d="M29.53,15.61a3.82,3.82,0,0,1-1.59,1.45,3.4,3.4,0,0,1-.07-2.15.9.9,0,1,1,1.66.7Z"/>
            <path class="cls-7" d="M26.3,15.68a3.82,3.82,0,0,1,1.63,1.4,3.4,3.4,0,0,1-2.13.33.9.9,0,0,1,.49-1.73Z"/>
          </g>
          <path class="cls-7" d="M24.79,23.1a4.53,4.53,0,0,0,.89-2.39,4,4,0,0,0-2.4.88,1.07,1.07,0,1,0,1.5,1.51Z"/>
          <path class="cls-7" d="M19.18,21.48a4.23,4.23,0,0,0,2.26-1.65,5.11,5.11,0,0,0-2.85-.4,1.07,1.07,0,1,0,.6,2Z"/>
        </g>
        <g>
          <g>
            <g>
              <path class="cls-8" d="M40.23,19.87s0,.06,0,.09A1.65,1.65,0,0,0,43,21.13a1.53,1.53,0,0,0,2.24-2.06,1.82,1.82,0,1,0-1.22-3.43,1.65,1.65,0,0,0-3.17.88,1.71,1.71,0,1,0-.65,3.35Z"/>
              <circle class="cls-9" cx="42.81" cy="18.21" r="0.68"/>
            </g>
            <g>
              <path class="cls-10" d="M35.39,21.53s0,0,0,.07a1.31,1.31,0,0,0,2.22.93,1.21,1.21,0,0,0,1.77-1.63,1.44,1.44,0,1,0-1-2.71,1.3,1.3,0,0,0-2.51.7,1.35,1.35,0,1,0-.52,2.65Z"/>
              <circle class="cls-11" cx="37.44" cy="20.21" r="0.51"/>
            </g>
            <g>
              <path class="cls-10" d="M20.65,19.86s0,.05,0,.08A1.5,1.5,0,0,0,23.2,21a1.39,1.39,0,0,0,2-1.87A1.65,1.65,0,1,0,24.12,16a1.5,1.5,0,0,0-2.88.8,1.55,1.55,0,1,0-.59,3Z"/>
              <circle class="cls-11" cx="22.99" cy="18.36" r="0.58"/>
            </g>
            <path class="cls-12" d="M30.24,21.65l0,.08a1.59,1.59,0,0,0,2.9.42,1.48,1.48,0,0,0,1.6-2.46,1.76,1.76,0,1,0-2-2.91A1.59,1.59,0,0,0,30,18.36a1.65,1.65,0,1,0,.19,3.28Z"/>
            <g>
              <path class="cls-8" d="M25.35,21.17l0,.06A1.16,1.16,0,0,0,27,22.61a1.08,1.08,0,0,0,1.94-.9,1.28,1.28,0,1,0-.08-2.55,1.16,1.16,0,0,0-2.31-.09,1.2,1.2,0,1,0-1.15,2.1Z"/>
              <circle class="cls-9" cx="27.43" cy="20.61" r="0.52" transform="translate(-0.56 40.46) rotate(-72.26)"/>
            </g>
          </g>
          <circle class="cls-13" cx="32.29" cy="19.49" r="0.68"/>
        </g>
      </g>
    </g>
  </g>
</svg>
