<?xml version="1.0" encoding="UTF-8"?>
<svg width="32px" height="16px" viewBox="0 0 32 16" version="1.1" xmlns="http://www.w3.org/2000/svg" xmlns:xlink="http://www.w3.org/1999/xlink">
    <!-- Generator: Sketch 46.2 (44496) - http://www.bohemiancoding.com/sketch -->
    <title>eyes1</title>
    <desc>Created with Sketch.</desc>
    <defs>
        <polygon id="path-1" points="0.258132353 0.178676471 15.5205882 0.178676471 15.5205882 15.4410882 0.258132353 15.4410882"></polygon>
        <polygon id="path-3" points="4.41176471e-05 0.178676471 15.2625441 0.178676471 15.2625441 15.4410882 4.41176471e-05 15.4410882"></polygon>
    </defs>
    <g id="Page-1" stroke="none" stroke-width="1" fill="none" fill-rule="evenodd">
        <g id="1" transform="translate(-112.000000, -130.000000)">
            <g id="eyes1" transform="translate(112.000000, 130.000000)">
                <g transform="translate(1.000000, 0.000000)">
                    <g id="Group-3" transform="translate(14.117647, 0.262632)">
                        <mask id="mask-2" fill="white">
                            <use xlink:href="#path-1"></use>
                        </mask>
                        <g id="Clip-2"></g>
                        <path d="M15.5206324,7.81005882 C15.5206324,12.0246176 12.1041618,15.4410882 7.88916176,15.4410882 C3.67460294,15.4410882 0.258132353,12.0246176 0.258132353,7.81005882 C0.258132353,3.59505882 3.67460294,0.178588235 7.88916176,0.178588235 C12.1041618,0.178588235 15.5206324,3.59505882 15.5206324,7.81005882" id="Fill-1" fill="#FFFFFF" mask="url(#mask-2)"></path>
                    </g>
                    <g id="Group-6" transform="translate(0.000000, 0.262632)">
                        <mask id="mask-4" fill="white">
                            <use xlink:href="#path-3"></use>
                        </mask>
                        <g id="Clip-5"></g>
                        <path d="M15.2625441,7.81005882 C15.2625441,12.0246176 11.8460735,15.4410882 7.63107353,15.4410882 C3.41651471,15.4410882 4.41176471e-05,12.0246176 4.41176471e-05,7.81005882 C4.41176471e-05,3.59505882 3.41651471,0.178588235 7.63107353,0.178588235 C11.8460735,0.178588235 15.2625441,3.59505882 15.2625441,7.81005882" id="Fill-4" fill="#FFFFFF" mask="url(#mask-4)"></path>
                    </g>
                    <path d="M29.0471471,9.84472059 C29.0471471,12.1714853 27.1611176,14.0579559 24.8343529,14.0579559 C22.5075882,14.0579559 20.6211176,12.1714853 20.6211176,9.84472059 C20.6211176,7.51839706 22.5075882,5.63192647 24.8343529,5.63192647 C27.1611176,5.63192647 29.0471471,7.51839706 29.0471471,9.84472059" id="Fill-7" fill="#564845"></path>
                    <path d="M14.6714559,9.84472059 C14.6714559,12.1714853 12.7854265,14.0579559 10.4586618,14.0579559 C8.13189706,14.0579559 6.24542647,12.1714853 6.24542647,9.84472059 C6.24542647,7.51839706 8.13189706,5.63192647 10.4586618,5.63192647 C12.7854265,5.63192647 14.6714559,7.51839706 14.6714559,9.84472059" id="Fill-9" fill="#564845"></path>
                </g>
            </g>
        </g>
    </g>
</svg>