<?xml version="1.0" encoding="UTF-8"?>
<svg width="32px" height="16px" viewBox="0 0 32 16" version="1.1" xmlns="http://www.w3.org/2000/svg" xmlns:xlink="http://www.w3.org/1999/xlink">
    <!-- Generator: Sketch 46.2 (44496) - http://www.bohemiancoding.com/sketch -->
    <title>eyes2</title>
    <desc>Created with Sketch.</desc>
    <defs></defs>
    <g id="Page-1" stroke="none" stroke-width="1" fill="none" fill-rule="evenodd">
        <g id="1" transform="translate(-112.000000, -130.000000)" fill="#564845">
            <g id="eyes2" transform="translate(113.000000, 123.000000)">
                <g transform="translate(0.000000, 15.000000)">
                    <path d="M13.8048529,1.32352941 L0.661764706,1.32352941 C0.296470588,1.32352941 0,1.02705882 0,0.661764706 C0,0.296470588 0.296470588,0 0.661764706,0 L13.8048529,0 C14.1701471,0 14.4666176,0.296470588 14.4666176,0.661764706 C14.4666176,1.02705882 14.1701471,1.32352941 13.8048529,1.32352941" id="Fill-1"></path>
                    <path d="M29.1266912,1.32352941 L15.9836029,1.32352941 C15.6183088,1.32352941 15.3218382,1.02705882 15.3218382,0.661764706 C15.3218382,0.296470588 15.6183088,0 15.9836029,0 L29.1266912,0 C29.4919853,0 29.7884559,0.296470588 29.7884559,0.661764706 C29.7884559,1.02705882 29.4919853,1.32352941 29.1266912,1.32352941" id="Fill-3"></path>
                </g>
            </g>
        </g>
    </g>
</svg>