<?xml version="1.0" encoding="UTF-8"?>
<svg width="32px" height="45px" viewBox="0 0 32 45" version="1.1" xmlns="http://www.w3.org/2000/svg" xmlns:xlink="http://www.w3.org/1999/xlink">
    <!-- Generator: Sketch 46.2 (44496) - http://www.bohemiancoding.com/sketch -->
    <title>Page 1</title>
    <desc>Created with Sketch.</desc>
    <defs></defs>
    <g id="Page-1" stroke="none" stroke-width="1" fill="none" fill-rule="evenodd">
        <g id="1-copy-5" transform="translate(-134.000000, -832.000000)">
            <g id="marker" transform="translate(134.000000, 832.000000)">
                <g id="Page-1">
                    <path d="M15.885482,0.262190164 C7.25702295,0.262190164 0.262137705,7.25707541 0.262137705,15.8855344 C0.262137705,19.0708459 1.21479344,22.032682 2.85099016,24.5024525 C3.19721967,25.0238951 3.66567869,25.5752393 4.35971148,26.3899279 C5.3611541,27.566059 6.06620328,28.0717639 8.17348197,30.5341902 C9.31446557,31.8671738 10.4077115,33.4503869 11.2795803,35.0330754 C12.3486951,36.9745836 13.0804984,38.5320918 13.6040393,39.772223 C15.0545311,43.2103869 14.9024,44.2134033 15.885482,44.2134033 C16.8690885,44.2134033 16.7169574,43.2103869 18.1674492,39.772223 C18.6904656,38.5320918 19.4227934,36.9745836 20.4913836,35.0330754 C21.3632525,33.4503869 22.457023,31.8671738 23.5980066,30.5341902 C25.7047607,28.0717639 26.4098098,27.566059 27.4112525,26.3899279 C28.1052852,25.5752393 28.5742689,25.0238951 28.9199738,24.5024525 C30.5561705,22.032682 31.5088262,19.0708459 31.5088262,15.8855344 C31.5088262,7.25707541 24.513941,0.262190164 15.885482,0.262190164" id="Fill-1" fill="#0099EE"></path>
                    <path d="M15.885482,0.762190164 C7.53316533,0.762190164 0.762137705,7.53321778 0.762137705,15.8855344 C0.762137705,18.8954651 1.64204688,21.7722767 3.26753035,24.2258765 C3.54966596,24.6507898 3.83880865,25.0074426 4.74040448,26.0657785 C4.90131815,26.2547614 5.06050413,26.4332105 5.23218212,26.6179812 C5.30386027,26.6951258 5.37817228,26.7738716 5.45813547,26.8575182 C5.5564978,26.9604113 6.37649821,27.7998639 6.67770453,28.117524 C7.25356555,28.724842 7.84489239,29.3812178 8.55333177,30.2090531 C9.71697863,31.5685136 10.8295688,33.1799278 11.7175658,34.7918935 C12.6930263,36.563326 13.4536301,38.1303577 14.0647206,39.5778708 C14.5957352,40.8365577 15.4310575,43.2247393 15.5045393,43.3793383 C15.6443787,43.6735481 15.6969732,43.7134033 15.885482,43.7134033 C16.0743237,43.7134033 16.1270458,43.673456 16.267018,43.3789724 C16.3405923,43.2241816 17.17592,40.8361626 17.7067453,39.5779244 C18.3149316,38.1358458 19.0765783,36.5666652 20.0534382,34.7918208 C20.9409089,33.1808104 22.0538717,31.5692592 23.2180813,30.2091412 C23.9264227,29.3812143 24.5176554,28.7248043 25.0933617,28.1175528 C25.3948382,27.7995572 26.2152844,26.9595681 26.312831,26.8575246 C26.3927426,26.7739292 26.4670039,26.6952357 26.538632,26.6181455 C26.7103785,26.4333021 26.8696066,26.2548075 27.0306398,26.0656841 C27.9373367,25.0013604 28.2221797,24.6501044 28.5031467,24.226309 C30.1289171,21.7722767 31.0088262,18.8954651 31.0088262,15.8855344 C31.0088262,7.53321778 24.2377986,0.762190164 15.885482,0.762190164 Z" id="Stroke-3" stroke="#0168AD"></path>
                    <path d="M15.885482,21.0172852 C13.0558426,21.0172852 10.753941,18.714859 10.753941,15.8857443 C10.753941,13.0561049 13.0558426,10.7542033 15.885482,10.7542033 C18.7151213,10.7542033 21.017023,13.0561049 21.017023,15.8857443 C21.017023,18.714859 18.7151213,21.0172852 15.885482,21.0172852" id="Fill-5" fill="#FFFFFF"></path>
                </g>
            </g>
        </g>
    </g>
</svg>