<?xml version="1.0" encoding="UTF-8"?>
<svg width="106px" height="33px" viewBox="0 0 106 33" version="1.1" xmlns="http://www.w3.org/2000/svg" xmlns:xlink="http://www.w3.org/1999/xlink">
    <!-- Generator: Sketch 46.2 (44496) - http://www.bohemiancoding.com/sketch -->
    <title>marker_popup</title>
    <desc>Created with Sketch.</desc>
    <defs>
        <path d="M60.2438049,27 L106,27 C107.104569,27 108,26.1045695 108,25 L108,3 C108,1.8954305 107.104569,1 106,1 L4,1 L4,1 C2.8954305,1 2,1.8954305 2,3 L2,3 L2,25 C2,26.1045695 2.8954305,27 4,27 L49.7497049,27 L54.9964034,33.4837916 L60.2438049,27 Z" id="path-1"></path>
    </defs>
    <g id="Page-1" stroke="none" stroke-width="1" fill="none" fill-rule="evenodd">
        <g id="1-copy-6" transform="translate(-139.000000, -704.000000)">
            <g id="marker_popup" transform="translate(137.000000, 703.000000)">
                <g id="Combined-Shape">
                    <use fill="#FFFFFF" fill-rule="evenodd" xlink:href="#path-1"></use>
                    <path stroke="#B4B4B4" stroke-width="1" d="M54.9964294,32.6889708 L60.0052293,26.5 L106,26.5 C106.828427,26.5 107.5,25.8284271 107.5,25 L107.5,3 C107.5,2.17157288 106.828427,1.5 106,1.5 L4,1.5 C3.17157288,1.5 2.5,2.17157288 2.5,3 L2.5,25 C2.5,25.8284271 3.17157288,26.5 4,26.5 L49.9883005,26.5 L54.9964294,32.6889708 Z"></path>
                </g>
            </g>
        </g>
    </g>
</svg>