<?xml version="1.0" encoding="UTF-8"?>
<svg width="110px" height="39px" viewBox="0 0 110 39" version="1.1" xmlns="http://www.w3.org/2000/svg" xmlns:xlink="http://www.w3.org/1999/xlink">
    <!-- Generator: Sketch 46.2 (44496) - http://www.bohemiancoding.com/sketch -->
    <title>marker_popup</title>
    <desc>Created with Sketch.</desc>
    <defs>
        <path d="M61.8667685,30 L108,30 C109.104569,30 110,29.1045695 110,28 L110,2 C110,0.8954305 109.104569,-2.02906125e-16 108,0 L2,0 L2,0 C0.8954305,2.02906125e-16 -1.3527075e-16,0.8954305 0,2 L0,2 L0,28 C1.3527075e-16,29.1045695 0.8954305,30 2,30 L48.1332315,30 L55,38.4852814 L61.8667685,30 Z" id="path-1"></path>
    </defs>
    <g id="Page-1" stroke="none" stroke-width="1" fill="none" fill-rule="evenodd">
        <g id="1-copy-5" transform="translate(-96.000000, -789.000000)">
            <g id="marker_popup" transform="translate(96.000000, 789.000000)">
                <g id="Combined-Shape">
                    <use fill="#FFFFFF" fill-rule="evenodd" xlink:href="#path-1"></use>
                    <path stroke="#B4B4B4" stroke-width="1" d="M55,37.6904606 L61.6281829,29.5 L108,29.5 C108.828427,29.5 109.5,28.8284271 109.5,28 L109.5,2 C109.5,1.17157288 108.828427,0.5 108,0.5 L2,0.5 C1.17157288,0.5 0.5,1.17157288 0.5,2 L0.5,28 C0.5,28.8284271 1.17157288,29.5 2,29.5 L48.3718171,29.5 L55,37.6904606 Z"></path>
                </g>
            </g>
        </g>
    </g>
</svg>