<?xml version="1.0" encoding="UTF-8"?>
<svg width="32px" height="45px" viewBox="0 0 32 45" version="1.1" xmlns="http://www.w3.org/2000/svg" xmlns:xlink="http://www.w3.org/1999/xlink">
    <!-- Generator: Sketch 46.2 (44496) - http://www.bohemiancoding.com/sketch -->
    <title>Page 1</title>
    <desc>Created with Sketch.</desc>
    <defs>
        <polygon id="path-1" points="0.000104918033 0.114360656 31.7712787 0.114360656 31.7712787 44.590059 0.000104918033 44.590059"></polygon>
    </defs>
    <g id="Page-1" stroke="none" stroke-width="1" fill="none" fill-rule="evenodd">
        <g id="1-copy-5" transform="translate(-134.000000, -797.000000)">
            <g id="marker" transform="translate(134.000000, 797.000000)">
                <g id="Page-1">
                    <path d="M15.8857443,0.786885246 C7.25728525,0.786885246 0.2624,7.78177049 0.2624,16.4102295 C0.2624,19.595541 1.21505574,22.557377 2.85125246,25.0271475 C3.19748197,25.5485902 3.66594098,26.0999344 4.35997377,26.914623 C5.36141639,28.0907541 6.06646557,28.596459 8.17374426,31.0588852 C9.31472787,32.3918689 10.4079738,33.975082 11.2798426,35.5577705 C12.3489574,37.4992787 13.0807607,39.0567869 13.6043016,40.296918 C15.0547934,43.735082 14.9026623,44.7380984 15.8857443,44.7380984 C16.8693508,44.7380984 16.7172197,43.735082 18.1677115,40.296918 C18.6907279,39.0567869 19.4230557,37.4992787 20.4916459,35.5577705 C21.3635148,33.975082 22.4572852,32.3918689 23.5982689,31.0588852 C25.705023,28.596459 26.4100721,28.0907541 27.4115148,26.914623 C28.1055475,26.0999344 28.5745311,25.5485902 28.9202361,25.0271475 C30.5564328,22.557377 31.5090885,19.595541 31.5090885,16.4102295 C31.5090885,7.78177049 24.5142033,0.786885246 15.8857443,0.786885246" id="Fill-1" fill="#0099EE"></path>
                    <g id="Group-5" transform="translate(0.000000, 0.410334)">
                        <mask id="mask-2" fill="white">
                            <use xlink:href="#path-1"></use>
                        </mask>
                        <g id="Clip-4"></g>
                        <path d="M15.8857443,0.638845902 C7.41571148,0.638845902 0.524695082,7.5298623 0.524695082,15.9998951 C0.524695082,19.0288787 1.40495738,21.9587148 3.07000656,24.4720262 C3.41099016,24.9856 3.89256393,25.5511082 4.55984262,26.3337967 C4.96744918,26.8127475 5.33256393,27.1862557 5.75538361,27.6195672 C6.36758033,28.2454033 7.13033443,29.0249443 8.37308852,30.478059 C9.52036721,31.8189115 10.6340721,33.4320262 11.5090885,35.0210098 C12.4486295,36.7264525 13.2129574,38.2850098 13.8461377,39.7848131 C14.3392525,40.9530754 14.650859,41.8501246 14.8785311,42.5048131 C15.345941,43.8498623 15.4524328,44.0654689 15.8857443,44.0654689 C16.3190557,44.0654689 16.4260721,43.8493377 16.8940066,42.5042885 C17.1211541,41.8496 17.4332852,40.9530754 17.9258754,39.7848131 C18.5564328,38.2902557 19.3202361,36.732223 20.2618754,35.0210098 C21.1368918,33.4330754 22.2511213,31.8194361 23.3989246,30.478059 C24.6422033,29.0244197 25.4044328,28.2448787 26.0166295,27.618518 C26.4389246,27.1857311 26.8040393,26.8127475 27.2116459,26.3337967 C27.9051541,25.520682 28.3631213,24.982977 28.701482,24.4720262 C30.3665311,21.9587148 31.2467934,19.0288787 31.2467934,15.9998951 C31.2467934,7.5298623 24.355777,0.638845902 15.8857443,0.638845902 M15.8857443,44.590059 C15.0479738,44.590059 14.8397115,43.990977 14.3827934,42.6768787 C14.1577443,42.0284852 13.8487607,41.1414033 13.3624656,39.9888787 C12.7366295,38.5058623 11.9801705,36.9630426 11.0500721,35.2738623 C10.1918426,33.7158295 9.09912131,32.133141 7.9744,30.8190426 C6.7426623,29.3795672 5.98725246,28.6063213 5.38082623,27.9857311 C4.9506623,27.5461246 4.57925246,27.1663213 4.16010492,26.6742557 C3.48128525,25.8774033 2.99079344,25.3019279 2.63249836,24.7616 C0.910268852,22.1617311 0.000104918033,19.132223 0.000104918033,15.9998951 C0.000104918033,7.24028852 7.1266623,0.114255738 15.8857443,0.114255738 C24.6448262,0.114255738 31.7713836,7.24028852 31.7713836,15.9998951 C31.7713836,19.132223 30.8612197,22.1617311 29.1389902,24.7616 C28.7827934,25.2993049 28.2912525,25.8758295 27.6113836,26.6742557 C27.1922361,27.1657967 26.8213508,27.5456 26.3917115,27.9852066 C25.7847607,28.6063213 25.0298754,29.3790426 23.7976131,30.8190426 C22.6723672,32.1341902 21.5796459,33.7168787 20.7214164,35.2738623 C19.7886951,36.9688131 19.0322361,38.5111082 18.4095475,39.9888787 C17.9232525,41.1408787 17.6147934,42.0279607 17.3892197,42.6763541 C16.9323016,43.9904525 16.7240393,44.590059 15.8857443,44.590059" id="Fill-3" fill="#0168AD" mask="url(#mask-2)"></path>
                    </g>
                    <path d="M15.8857443,21.5419803 C13.0561049,21.5419803 10.7542033,19.2395541 10.7542033,16.4104393 C10.7542033,13.5808 13.0561049,11.2788984 15.8857443,11.2788984 C18.7153836,11.2788984 21.0172852,13.5808 21.0172852,16.4104393 C21.0172852,19.2395541 18.7153836,21.5419803 15.8857443,21.5419803" id="Fill-6" fill="#FFFFFF"></path>
                    <path d="M15.8857443,11.0163934 C12.9065967,11.0163934 10.4919082,13.4316066 10.4919082,16.4102295 C10.4919082,19.389377 12.9065967,21.8040656 15.8857443,21.8040656 C18.8648918,21.8040656 21.2795803,19.389377 21.2795803,16.4102295 C21.2795803,13.4316066 18.8648918,11.0163934 15.8857443,11.0163934 M15.8857443,11.5409836 C18.5705967,11.5409836 20.7549902,13.725377 20.7549902,16.4102295 C20.7549902,19.095082 18.5705967,21.2794754 15.8857443,21.2794754 C13.2008918,21.2794754 11.0164984,19.095082 11.0164984,16.4102295 C11.0164984,13.725377 13.2008918,11.5409836 15.8857443,11.5409836" id="Fill-8" fill="#0168AD"></path>
                </g>
            </g>
        </g>
    </g>
</svg>