<?xml version="1.0" encoding="UTF-8"?>
<svg width="30px" height="15px" viewBox="0 0 30 15" version="1.1" xmlns="http://www.w3.org/2000/svg" xmlns:xlink="http://www.w3.org/1999/xlink">
    <!-- Generator: Sketch 46.2 (44496) - http://www.bohemiancoding.com/sketch -->
    <title>mj_eyes2</title>
    <desc>Created with Sketch.</desc>
    <defs>
        <polygon id="path-1" points="0 0 0 1.28882813 6.3048613 1.28882813 12.6097226 1.28882813 12.6097226 0"></polygon>
        <polygon id="path-3" points="0.133208868 0.391374143 3.33290955 0.391374143 3.33290955 2.57765626 1.73305921 2.57765626 0.133208868 2.57765626"></polygon>
        <polygon id="path-5" points="0 0 0 1.28882813 6.3048613 1.28882813 12.6097226 1.28882813 12.6097226 0"></polygon>
        <polygon id="path-7" points="0.133208868 0.391374143 3.33290955 0.391374143 3.33290955 2.57765626 1.73305921 2.57765626 0.133208868 2.57765626"></polygon>
    </defs>
    <g id="Page-1" stroke="none" stroke-width="1" fill="none" fill-rule="evenodd">
        <g id="1" transform="translate(-212.000000, -169.000000)">
            <g id="mj_eyes2" transform="translate(212.000000, 169.000000)">
                <g transform="translate(0.000000, 6.000000)">
                    <g id="Page-1" transform="translate(15.275000, 0.000000)">
                        <g id="Group-3" transform="translate(0.000000, 1.327132)">
                            <mask id="mask-2" fill="white">
                                <use xlink:href="#path-1"></use>
                            </mask>
                            <g id="Clip-2"></g>
                            <path d="M11.9653085,1.28882813 L0.644242222,1.28882813 C0.288525658,1.28882813 -0.000171843751,1.00013063 -0.000171843751,0.644414066 C-0.000171843751,0.288697502 0.288525658,0 0.644242222,0 L11.9653085,0 C12.3210251,0 12.6097226,0.288697502 12.6097226,0.644414066 C12.6097226,1.00013063 12.3210251,1.28882813 11.9653085,1.28882813" id="Fill-1" fill="#564845" mask="url(#mask-2)"></path>
                        </g>
                        <g id="Group-6" transform="translate(11.169844, 0.038304)">
                            <mask id="mask-4" fill="white">
                                <use xlink:href="#path-3"></use>
                            </mask>
                            <g id="Clip-5"></g>
                            <path d="M0.827771348,2.57765626 C0.921426192,2.57765626 1.01594026,2.55875345 1.10701744,2.51837017 L2.9191098,1.71972634 C3.27010066,1.56506696 3.42862652,1.15564922 3.27396714,0.805087973 C3.11973738,0.454956331 2.70989003,0.295571252 2.35932878,0.450230627 L0.547666034,1.24930407 C0.196675173,1.40396344 0.0377197033,1.81295157 0.192379079,2.16394243 C0.307084783,2.4234265 0.560983925,2.57765626 0.827771348,2.57765626" id="Fill-4" fill="#564845" mask="url(#mask-4)"></path>
                        </g>
                    </g>
                    <g id="Page-1-Copy" transform="translate(7.303359, 1.503633) scale(-1, 1) translate(-7.303359, -1.503633) ">
                        <g id="Group-3" transform="translate(0.000000, 1.327132)">
                            <mask id="mask-6" fill="white">
                                <use xlink:href="#path-5"></use>
                            </mask>
                            <g id="Clip-2"></g>
                            <path d="M11.9653085,1.28882813 L0.644242222,1.28882813 C0.288525658,1.28882813 -0.000171843751,1.00013063 -0.000171843751,0.644414066 C-0.000171843751,0.288697502 0.288525658,0 0.644242222,0 L11.9653085,0 C12.3210251,0 12.6097226,0.288697502 12.6097226,0.644414066 C12.6097226,1.00013063 12.3210251,1.28882813 11.9653085,1.28882813" id="Fill-1" fill="#564845" mask="url(#mask-6)"></path>
                        </g>
                        <g id="Group-6" transform="translate(11.169844, 0.038304)">
                            <mask id="mask-8" fill="white">
                                <use xlink:href="#path-7"></use>
                            </mask>
                            <g id="Clip-5"></g>
                            <path d="M0.827771348,2.57765626 C0.921426192,2.57765626 1.01594026,2.55875345 1.10701744,2.51837017 L2.9191098,1.71972634 C3.27010066,1.56506696 3.42862652,1.15564922 3.27396714,0.805087973 C3.11973738,0.454956331 2.70989003,0.295571252 2.35932878,0.450230627 L0.547666034,1.24930407 C0.196675173,1.40396344 0.0377197033,1.81295157 0.192379079,2.16394243 C0.307084783,2.4234265 0.560983925,2.57765626 0.827771348,2.57765626" id="Fill-4" fill="#564845" mask="url(#mask-8)"></path>
                        </g>
                    </g>
                </g>
            </g>
        </g>
    </g>
</svg>