<?xml version="1.0" encoding="UTF-8"?>
<svg width="30px" height="15px" viewBox="0 0 30 15" version="1.1" xmlns="http://www.w3.org/2000/svg" xmlns:xlink="http://www.w3.org/1999/xlink">
    <!-- Generator: Sketch 46.2 (44496) - http://www.bohemiancoding.com/sketch -->
    <title>mj_eyes1</title>
    <desc>Created with Sketch.</desc>
    <defs>
        <polygon id="path-1" points="3.22028571 0.215703291 3.22028571 2.39678571 0.0281870316 2.39678571 0.0281870316 0.215703291 3.22028571 0.215703291"></polygon>
    </defs>
    <g id="Page-1" stroke="none" stroke-width="1" fill="none" fill-rule="evenodd">
        <g id="1" transform="translate(-212.000000, -169.000000)">
            <g id="mj_eyes1" transform="translate(212.000000, 170.000000)">
                <g>
                    <g id="Group-3" transform="translate(26.571429, 2.217686)">
                        <mask id="mask-2" fill="white">
                            <use xlink:href="#path-1"></use>
                        </mask>
                        <g id="Clip-2"></g>
                        <path d="M0.721071429,2.39678571 C0.8145,2.39678571 0.908785714,2.37792857 0.999642857,2.33764286 L2.80735714,1.54092857 C3.1575,1.38664286 3.31564286,0.978214286 3.16135714,0.6285 C3.0075,0.279214286 2.59864286,0.120214286 2.24892857,0.274928571 L0.441642857,1.07164286 C0.0915,1.22592857 -0.0670714286,1.63435714 0.0872142857,1.98407143 C0.201642857,2.24292857 0.454928571,2.39678571 0.721071429,2.39678571" id="Fill-1" fill="#564845" mask="url(#mask-2)"></path>
                    </g>
                    <path d="M2.49938571,4.61447143 C2.7651,4.61447143 3.01881429,4.46061429 3.13324286,4.20175714 C3.2871,3.85247143 3.12852857,3.44361429 2.77881429,3.28932857 L0.971528571,2.49261429 C0.620528571,2.3379 0.213385714,2.4969 0.0591,2.84618571 C-0.0951857143,3.19547143 0.0629571429,3.60432857 0.4131,3.75861429 L2.22038571,4.55532857 C2.31167143,4.59561429 2.40595714,4.61447143 2.49938571,4.61447143" id="Fill-4" fill="#564845"></path>
                    <path d="M14.5848,6.68031429 C14.5848,2.99117143 17.5758,0.000171428571 21.2649429,0.000171428571 C24.9540857,0.000171428571 27.9450857,2.99117143 27.9450857,6.68031429 C27.9450857,10.3694571 24.9540857,13.3604571 21.2649429,13.3604571 C17.5758,13.3604571 14.5848,10.3694571 14.5848,6.68031429" id="Fill-6" fill="#FFFFFF"></path>
                    <path d="M1.53887143,6.68031429 C1.53887143,2.99117143 4.52987143,0.000171428571 8.21944286,0.000171428571 C11.9085857,0.000171428571 14.8995857,2.99117143 14.8995857,6.68031429 C14.8995857,10.3694571 11.9085857,13.3604571 8.21944286,13.3604571 C4.52987143,13.3604571 1.53887143,10.3694571 1.53887143,6.68031429" id="Fill-8" fill="#FFFFFF"></path>
                    <path d="M2.59105714,4.42487143 C2.59105714,2.3883 4.24234286,0.737442857 6.27891429,0.737442857 C8.31548571,0.737442857 9.96677143,2.3883 9.96677143,4.42487143 C9.96677143,6.46187143 8.31548571,8.11272857 6.27891429,8.11272857 C4.24234286,8.11272857 2.59105714,6.46187143 2.59105714,4.42487143" id="Fill-10" fill="#564845"></path>
                    <path d="M15.6365571,4.42487143 C15.6365571,2.3883 17.2878429,0.737442857 19.3244143,0.737442857 C21.3609857,0.737442857 23.0122714,2.3883 23.0122714,4.42487143 C23.0122714,6.46187143 21.3609857,8.11272857 19.3244143,8.11272857 C17.2878429,8.11272857 15.6365571,6.46187143 15.6365571,4.42487143" id="Fill-12" fill="#564845"></path>
                </g>
            </g>
        </g>
    </g>
</svg>