<?xml version="1.0" encoding="UTF-8"?>
<svg width="9px" height="9px" viewBox="0 0 9 9" version="1.1" xmlns="http://www.w3.org/2000/svg" xmlns:xlink="http://www.w3.org/1999/xlink">
    <!-- Generator: Sketch 46.2 (44496) - http://www.bohemiancoding.com/sketch -->
    <title>star_1</title>
    <desc>Created with Sketch.</desc>
    <defs>
        <polygon id="path-1" points="0.000315 0.000135 8.69985 0.000135 8.69985 8.699985 0.000315 8.699985 0.000315 0.000135"></polygon>
    </defs>
    <g id="Page-1" stroke="none" stroke-width="1" fill="none" fill-rule="evenodd">
        <g id="1" transform="translate(-25.000000, -22.000000)">
            <g id="star_1" transform="translate(25.000000, 22.000000)">
                <g>
                    <mask id="mask-2" fill="white">
                        <use xlink:href="#path-1"></use>
                    </mask>
                    <g id="Clip-2"></g>
                    <path d="M7.081515,2.73141 L5.968665,2.73141 L5.968665,1.61856 C5.968665,0.72486 5.243715,-9e-05 4.350015,-9e-05 C3.455865,-9e-05 2.731365,0.72486 2.731365,1.61856 L2.731365,2.73141 L1.618515,2.73141 C0.724815,2.73141 0.000315,3.45591 0.000315,4.35006 C0.000315,5.24376 0.724815,5.96871 1.618515,5.96871 L2.731365,5.96871 L2.731365,7.08156 C2.731365,7.97526 3.455865,8.70021 4.350015,8.70021 C5.243715,8.70021 5.968665,7.97526 5.968665,7.08156 L5.968665,5.96871 L7.081515,5.96871 C7.975215,5.96871 8.700165,5.24376 8.700165,4.35006 C8.700165,3.45591 7.975215,2.73141 7.081515,2.73141" id="Fill-1" fill="#FFFFFF" mask="url(#mask-2)"></path>
                </g>
            </g>
        </g>
    </g>
</svg>